<svg
        width="164"
        height="31"
        viewBox="0 0 164 31"
        fill="none"
        xmlns="http://www.w3.org/2000/svg"
>
    <path
            d="M55.5589 16.7811H61.7367C62.6045 16.7811 63.308 17.4898 63.308 18.3641C63.308 19.2384 62.6045 19.9472 61.7367 19.9472H54.2852C54.1689 19.9472 54.0564 19.9891 53.968 20.0652L51.7182 22.0045C51.3738 22.3014 51.5821 22.8697 52.0354 22.8697H61.3636C61.3674 22.8697 61.3705 22.8666 61.3705 22.8627C61.3705 22.8586 61.374 22.8554 61.378 22.8557C61.4954 22.865 61.614 22.8697 61.7338 22.8697C64.2082 22.8697 66.2142 20.8525 66.2142 18.3641C66.2142 16.0011 64.4053 14.063 62.104 13.8737C62.1001 13.8734 62.0971 13.8701 62.0971 13.8661C62.0971 13.8619 62.0937 13.8585 62.0895 13.8585H55.4341C54.5663 13.8585 53.8628 13.1498 53.8628 12.2755C53.8628 11.4012 54.5663 10.6924 55.4341 10.6924H62.8753C62.9978 10.6924 63.1158 10.646 63.2059 10.5623L65.2951 8.62304C65.6219 8.31964 65.4089 7.76985 64.9644 7.76985H55.5589C55.5585 7.76985 55.5581 7.77021 55.5581 7.77065C55.5581 7.7711 55.5577 7.77146 55.5573 7.77144C55.5173 7.77038 55.4772 7.76985 55.437 7.76985C52.9625 7.76985 50.9566 9.78708 50.9566 12.2755C50.9566 14.7638 52.9625 16.7811 55.437 16.7811C55.4772 16.7811 55.5173 16.7805 55.5573 16.7795C55.5577 16.7795 55.5581 16.7798 55.5581 16.7803C55.5581 16.7807 55.5585 16.7811 55.5589 16.7811Z"
            fill="white"
    />
    <path
            d="M91.5409 7.76985C91.2709 7.76985 91.0519 7.98996 91.0519 8.26148V22.3781C91.0519 22.6496 91.2709 22.8697 91.5409 22.8697H102.853C102.988 22.8697 103.118 22.8135 103.21 22.7144L104.626 21.196C104.919 20.882 104.697 20.3681 104.269 20.3681H94.3921C94.1221 20.3681 93.9031 20.148 93.9031 19.8765V8.26148C93.9031 7.98996 93.6842 7.76985 93.4141 7.76985H91.5409Z"
            fill="white"
    />
    <path
            fill-rule="evenodd"
            clip-rule="evenodd"
            d="M73.4224 7.76985C73.4216 7.76985 73.421 7.77045 73.421 7.77118C73.421 7.77189 73.4205 7.77248 73.4198 7.77251C71.9739 7.83514 70.8129 8.99864 70.7504 10.4476C70.7503 10.4483 70.7498 10.4489 70.749 10.4489C70.7486 10.4489 70.7483 10.449 70.748 10.4493C70.7478 10.4496 70.7477 10.4499 70.7477 10.4502V19.9459C70.7477 19.9466 70.7483 19.9472 70.749 19.9472C70.7497 19.9472 70.7503 19.9478 70.7503 19.9485C70.7486 19.9884 70.7477 20.0286 70.7477 20.069C70.7477 21.5746 71.9332 22.8027 73.4198 22.8671C73.4205 22.8671 73.421 22.8677 73.421 22.8684L73.4212 22.869L73.4215 22.8694C73.4217 22.8696 73.422 22.8697 73.4224 22.8697H83.687C83.6878 22.8697 83.6883 22.8691 83.6883 22.8684L83.6886 22.8677L83.6891 22.8672L83.6896 22.8671C85.1762 22.8027 86.3617 21.5746 86.3617 20.069C86.3617 20.0286 86.3608 19.9884 86.3591 19.9485C86.3591 19.9478 86.3597 19.9472 86.3604 19.9472C86.3611 19.9472 86.3617 19.9466 86.3617 19.9459V10.4502C86.3617 10.4495 86.3611 10.4489 86.3603 10.4489C86.3596 10.4489 86.3591 10.4483 86.359 10.4476C86.2965 8.99864 85.1355 7.83514 83.6896 7.77251C83.6889 7.77248 83.6883 7.77189 83.6883 7.77118C83.6883 7.77045 83.6878 7.76985 83.687 7.76985H73.4224ZM75.3357 10.4489L75.3351 10.4492L75.3349 10.4497C75.3349 10.4501 75.3346 10.4505 75.3341 10.4505C74.4304 10.4899 73.7048 11.2218 73.6657 12.1333C73.6657 12.1337 73.6654 12.1341 73.6649 12.1341C73.6645 12.1341 73.6641 12.1344 73.6641 12.1349V18.108C73.6641 18.1084 73.6644 18.1088 73.6649 18.1088C73.6653 18.1088 73.6657 18.1092 73.6657 18.1096C73.6646 18.1348 73.6641 18.16 73.6641 18.1854C73.6641 19.1325 74.405 19.905 75.3341 19.9455C75.3346 19.9455 75.3349 19.9459 75.3349 19.9463L75.3351 19.9468L75.3353 19.9471L75.3357 19.9472H81.7737L81.774 19.9471L81.7744 19.9468L81.7745 19.9463C81.7745 19.9459 81.7749 19.9455 81.7753 19.9455C82.7044 19.905 83.4453 19.1325 83.4453 18.1854C83.4453 18.16 83.4448 18.1348 83.4437 18.1096L83.4438 18.1094L83.4439 18.1092L83.4445 18.1088C83.445 18.1088 83.4453 18.1084 83.4453 18.108V12.1349C83.4453 12.1344 83.445 12.1341 83.4445 12.1341C83.4441 12.1341 83.4437 12.1337 83.4437 12.1333C83.4046 11.2218 82.679 10.4899 81.7753 10.4505C81.7749 10.4505 81.7745 10.4501 81.7745 10.4497L81.7744 10.4493L81.7741 10.449L81.7737 10.4489H75.3357Z"
            fill="white"
    />
    <path
            fill-rule="evenodd"
            clip-rule="evenodd"
            d="M121.076 22.3781C121.076 22.6496 121.293 22.8697 121.561 22.8697H123.479C123.747 22.8697 123.964 22.6496 123.964 22.3781V10.6937C123.964 10.693 123.964 10.6924 123.963 10.6924L123.962 10.6923L123.962 10.6921C123.962 10.6918 123.962 10.6915 123.962 10.6911C123.963 10.6511 123.964 10.611 123.964 10.5706C123.964 9.06504 122.79 7.83691 121.318 7.77251C121.317 7.77248 121.316 7.77189 121.316 7.77118C121.316 7.77045 121.316 7.76985 121.315 7.76985H111.461C111.46 7.76985 111.459 7.77042 111.459 7.77112C111.459 7.77185 111.459 7.77243 111.458 7.7724C111.419 7.77071 111.379 7.76985 111.339 7.76985C109.81 7.76985 108.571 9.02381 108.571 10.5706C108.571 10.611 108.572 10.6511 108.573 10.6911C108.573 10.6918 108.573 10.6924 108.572 10.6924C108.571 10.6924 108.571 10.693 108.571 10.6937V22.3781C108.571 22.6496 108.788 22.8697 109.056 22.8697H110.974C111.242 22.8697 111.459 22.6496 111.459 22.3781V17.5162C111.459 17.2447 111.676 17.0246 111.944 17.0246H120.591C120.858 17.0246 121.076 17.2447 121.076 17.5162V22.3781ZM111.459 14.3411V11.9101C111.459 10.9686 112.214 10.2053 113.144 10.2053H119.391C120.321 10.2053 121.076 10.9686 121.076 11.9101V14.3411C121.076 14.6126 120.858 14.8327 120.591 14.8327H111.944C111.676 14.8327 111.459 14.6126 111.459 14.3411Z"
            fill="white"
    />
    <path
            fill-rule="evenodd"
            clip-rule="evenodd"
            d="M161.573 22.8697C161.303 22.8697 161.084 22.6496 161.084 22.3781V17.5162C161.084 17.2447 160.864 17.0246 160.594 17.0246H151.852C151.582 17.0246 151.363 17.2447 151.363 17.5162V22.3781C151.363 22.6496 151.143 22.8697 150.873 22.8697H148.936C148.665 22.8697 148.446 22.6496 148.446 22.3781V10.6937L148.446 10.6933L148.446 10.6929C148.447 10.6926 148.447 10.6924 148.447 10.6924C148.448 10.6924 148.449 10.6918 148.449 10.6911C148.447 10.6511 148.446 10.611 148.446 10.5706C148.446 9.02381 149.697 7.76985 151.241 7.76985C151.281 7.76985 151.321 7.77071 151.361 7.7724C151.362 7.77243 151.363 7.77185 151.363 7.77112C151.363 7.77042 151.363 7.76985 151.364 7.76985L161.325 7.76985C161.326 7.76985 161.327 7.77045 161.327 7.77118C161.327 7.77189 161.327 7.77248 161.328 7.77251C162.815 7.83691 164 9.06504 164 10.5706C164 10.611 163.999 10.6511 163.997 10.6911C163.997 10.6918 163.998 10.6924 163.999 10.6924C163.999 10.6924 163.999 10.6926 164 10.6928C164 10.693 164 10.6933 164 10.6937V22.3781C164 22.6496 163.781 22.8697 163.51 22.8697H161.573ZM151.363 11.9101V14.3411C151.363 14.6126 151.582 14.8327 151.852 14.8327H160.594C160.864 14.8327 161.084 14.6126 161.084 14.3411V11.9101C161.084 10.9686 160.322 10.2053 159.382 10.2053H153.064C152.124 10.2053 151.363 10.9686 151.363 11.9101Z"
            fill="white"
    />
    <path
            d="M131.186 7.76985C131.328 7.76985 131.462 7.83294 131.555 7.94247L140.159 18.1996C140.452 18.5473 141.013 18.3376 141.013 17.8806V8.26148C141.013 7.98996 141.23 7.76985 141.498 7.76985H143.417C143.684 7.76985 143.902 7.98996 143.902 8.26148V22.3781C143.902 22.6496 143.684 22.8697 143.417 22.8697H141.031C141.021 22.8697 141.013 22.8615 141.013 22.8514C141.013 22.8469 141.011 22.8426 141.008 22.8393L132.26 12.6537C131.965 12.3116 131.409 12.5229 131.409 12.9771V22.3781C131.409 22.6496 131.192 22.8697 130.924 22.8697H128.993C128.726 22.8697 128.508 22.6496 128.508 22.3781V8.26148C128.508 7.98996 128.726 7.76985 128.993 7.76985H131.186Z"
            fill="white"
    />
    <path
            d="M6.354 23.3896C6.59323 23.1506 6.91758 23.0163 7.25576 23.0163H38.459C39.0275 23.0163 39.312 23.7037 38.9099 24.1055L32.7442 30.2663C32.505 30.5053 32.1806 30.6396 31.8424 30.6396H0.639175C0.0707485 30.6396 -0.213805 29.9522 0.188294 29.5504L6.354 23.3896Z"
            fill="url(#paint0_linear)"
    />
    <path
            d="M6.354 0.373311C6.59323 0.134274 6.91758 0 7.25576 0H38.459C39.0275 0 39.312 0.687357 38.9099 1.08914L32.7442 7.24993C32.505 7.48897 32.1806 7.62324 31.8424 7.62324H0.639175C0.0707485 7.62324 -0.213805 6.93589 0.188294 6.53411L6.354 0.373311Z"
            fill="url(#paint1_linear)"
    />
    <path
            d="M32.7442 11.8082C32.505 11.5691 32.1806 11.4349 31.8424 11.4349H0.639175C0.0707483 11.4349 -0.213805 12.1222 0.188294 12.524L6.354 18.6848C6.59323 18.9238 6.91758 19.0581 7.25576 19.0581H38.459C39.0275 19.0581 39.312 18.3707 38.9099 17.969L32.7442 11.8082Z"
            fill="url(#paint2_linear)"
    />
    <defs>
        <linearGradient
                id="paint0_linear"
                x1="26.4327"
                y1="-8.40461"
                x2="4.83737"
                y2="32.9591"
                gradientUnits="userSpaceOnUse"
        >
            <stop stop-color="#00FFA3"/>
            <stop offset="1" stop-color="#DC1FFF"/>
        </linearGradient>
        <linearGradient
                id="paint1_linear"
                x1="26.4327"
                y1="-8.40461"
                x2="4.83737"
                y2="32.9591"
                gradientUnits="userSpaceOnUse"
        >
            <stop stop-color="#00FFA3"/>
            <stop offset="1" stop-color="#DC1FFF"/>
        </linearGradient>
        <linearGradient
                id="paint2_linear"
                x1="26.4327"
                y1="-8.40461"
                x2="4.83737"
                y2="32.9591"
                gradientUnits="userSpaceOnUse"
        >
            <stop stop-color="#00FFA3"/>
            <stop offset="1" stop-color="#DC1FFF"/>
        </linearGradient>
    </defs>
</svg>
