<svg fill="#E1FF28" height="18" viewBox="0 0 18 18" width="18" xmlns="http://www.w3.org/2000/svg">
    <path d="M1.13826 17.3759C0.8198 17.0575 0.8198 16.5412 1.13826 16.2227L16.1303 1.23066C16.4488 0.912199 16.9651 0.9122 17.2835 1.23066C17.602 1.54911 17.602 2.06543 17.2835 2.38389L2.29149 17.3759C1.97303 17.6944 1.45671 17.6944 1.13826 17.3759Z"
    />
    <path d="M1.61594 1.23066C1.9344 0.9122 2.45072 0.9122 2.76918 1.23066L17.7612 16.2227C18.0797 16.5412 18.0797 17.0575 17.7612 17.3759C17.4428 17.6944 16.9265 17.6944 16.608 17.3759L1.61594 2.38389C1.29749 2.06543 1.29749 1.54911 1.61594 1.23066Z"
    />
</svg>