<svg width="24" height="25" viewBox="0 0 24 25" fill="#E1FF28" xmlns="http://www.w3.org/2000/svg">
    <path d="M18.3912 7.16153C17.3077 6.66436 16.1458 6.29807 14.9309 6.08828C14.9088 6.08423 14.8867 6.09435 14.8753 6.11459C14.7259 6.38037 14.5604 6.72709 14.4444 6.99962C13.1378 6.804 11.8378 6.804 10.558 6.99962C10.442 6.72104 10.2705 6.38037 10.1204 6.11459C10.109 6.09503 10.0869 6.08491 10.0648 6.08828C8.85061 6.2974 7.68869 6.66369 6.6045 7.16153C6.59511 7.16558 6.58707 7.17233 6.58173 7.18109C4.37782 10.4737 3.77408 13.6853 4.07025 16.8572C4.07159 16.8727 4.0803 16.8875 4.09237 16.897C5.54644 17.9648 6.95496 18.6131 8.33733 19.0428C8.35945 19.0495 8.38289 19.0414 8.39697 19.0232C8.72397 18.5767 9.01546 18.1058 9.26538 17.6107C9.28013 17.5817 9.26605 17.5473 9.23591 17.5358C8.77356 17.3604 8.3333 17.1466 7.90981 16.9037C7.87631 16.8842 7.87363 16.8363 7.90445 16.8133C7.99357 16.7465 8.08271 16.6771 8.1678 16.6069C8.1832 16.5941 8.20465 16.5914 8.22276 16.5995C11.0049 17.8697 14.0169 17.8697 16.7663 16.5995C16.7844 16.5907 16.8058 16.5934 16.8219 16.6062C16.907 16.6764 16.9961 16.7465 17.0859 16.8133C17.1167 16.8363 17.1147 16.8842 17.0812 16.9037C16.6577 17.1513 16.2175 17.3604 15.7545 17.5351C15.7243 17.5466 15.7109 17.5817 15.7257 17.6107C15.9809 18.1051 16.2724 18.576 16.5934 19.0226C16.6068 19.0414 16.6309 19.0495 16.653 19.0428C18.0421 18.6131 19.4506 17.9648 20.9047 16.897C20.9174 16.8875 20.9255 16.8734 20.9268 16.8579C21.2813 13.1909 20.3331 10.0055 18.4133 7.18176C18.4086 7.17233 18.4006 7.16558 18.3912 7.16153ZM9.68085 14.9259C8.84323 14.9259 8.15306 14.1569 8.15306 13.2125C8.15306 12.268 8.82985 11.499 9.68085 11.499C10.5385 11.499 11.222 12.2748 11.2086 13.2125C11.2086 14.1569 10.5318 14.9259 9.68085 14.9259ZM15.3296 14.9259C14.492 14.9259 13.8018 14.1569 13.8018 13.2125C13.8018 12.268 14.4786 11.499 15.3296 11.499C16.1873 11.499 16.8708 12.2748 16.8574 13.2125C16.8574 14.1569 16.1873 14.9259 15.3296 14.9259Z"/>
</svg>
