<svg width="60" height="60" viewBox="0 0 60 60" fill="none" xmlns="http://www.w3.org/2000/svg">
    <path d="M43.4468 22.3073V5.27344C43.4468 2.36566 41.0811 0 38.1733 0C35.2656 0 32.8999 2.36566 32.8999 5.27344V11.0824C29.9877 10.0499 26.8517 11.7445 26.0545 14.6696C24.8627 14.1953 23.5482 14.1754 22.353 14.5992V8.78906C22.353 5.88129 19.9874 3.51562 17.0796 3.51562C14.1718 3.51562 11.8062 5.88129 11.8062 8.78906V32.7673C11.8062 33.4852 11.8944 34.2022 12.0685 34.8989L14.5216 44.711C15.0723 46.914 16.7431 48.5927 18.8374 49.203V58.2422C18.8374 59.213 19.6244 60 20.5952 60H38.1733C39.1441 60 39.9312 59.213 39.9312 58.2422V49.2052C42.0215 48.6039 43.7279 46.9575 44.3449 44.7979L47.8495 32.5317C49.0547 28.3139 46.9785 24.1392 43.4468 22.3073ZM36.4155 5.27344C36.4155 4.30418 37.2041 3.51562 38.1733 3.51562C39.1426 3.51562 39.9312 4.30418 39.9312 5.27344V21.3281C38.6101 21.3281 37.7358 21.3281 36.4155 21.3281V5.27344ZM29.3843 19.5703V16.0547C29.3843 15.0854 30.1728 14.2969 31.1421 14.2969C32.1113 14.2969 32.8999 15.0854 32.8999 16.0547V21.3281C31.0594 21.3281 30.4275 21.2605 29.3843 21.6305V19.5703ZM22.353 19.5703C22.353 18.6011 23.1416 17.8125 24.1108 17.8125C25.0801 17.8125 25.8687 18.6011 25.8687 19.5703V23.0859C25.8687 24.0552 25.0801 24.8438 24.1108 24.8438C23.1416 24.8438 22.353 24.0552 22.353 23.0859V19.5703ZM44.4692 31.5659L40.9646 43.8321C40.6104 45.0717 39.4626 45.9375 38.1733 45.9375C37.2026 45.9375 36.4155 46.7245 36.4155 47.6953V56.4844H22.353V47.6953C22.353 46.7252 21.566 45.9375 20.5952 45.9375C19.3333 45.9375 18.2383 45.0825 17.9321 43.8584L15.4792 34.0464C15.3746 33.6284 15.3217 33.198 15.3217 32.7673V8.78906C15.3217 7.8198 16.1102 7.03125 17.0795 7.03125C18.0487 7.03125 18.8373 7.8198 18.8373 8.78906C18.8373 9.16148 18.8373 20.41 18.8373 23.0859C18.8373 25.9937 21.2029 28.3594 24.1107 28.3594C24.797 28.3594 25.4524 28.2261 26.0544 27.9866C26.4047 29.2719 27.2298 30.3626 28.3291 31.0588C26.8073 32.6398 25.8685 34.7859 25.8685 37.1484C25.8685 38.1192 26.6556 38.9062 27.6263 38.9062C28.5971 38.9062 29.3842 38.1192 29.3842 37.1484C29.3842 34.2407 31.7498 31.875 34.6576 31.875H38.1732C39.144 31.875 39.931 31.088 39.931 30.1172C39.931 29.1464 39.144 28.3594 38.1732 28.3594C37.428 28.3594 31.8872 28.3594 31.142 28.3594C30.1727 28.3594 29.3842 27.5708 29.3842 26.6016C29.3842 25.6323 30.1727 24.8438 31.142 24.8438C32.2161 24.8438 38.164 24.8438 39.3985 24.8438C42.904 24.8438 45.4328 28.1938 44.4692 31.5659Z"
          fill="#28FF7E"/>
</svg>
