<svg width="24" height="25" viewBox="0 0 24 25" fill="#E1FF28" xmlns="http://www.w3.org/2000/svg">
    <path d="M19.9977 9.31585C19.9602 8.46571 19.8227 7.88125 19.6258 7.3748C19.4226 6.83722 19.11 6.35593 18.7005 5.95583C18.3004 5.5495 17.816 5.23376 17.2846 5.03377C16.7752 4.83684 16.1938 4.69936 15.3437 4.66187C14.4872 4.62122 14.2153 4.61182 12.043 4.61182C9.8707 4.61182 9.59879 4.62122 8.74548 4.6587C7.89534 4.69618 7.31088 4.83378 6.80455 5.0306C6.26685 5.23376 5.78556 5.54632 5.38545 5.95583C4.97912 6.35593 4.66351 6.8404 4.4634 7.37175C4.26646 7.88125 4.12898 8.46254 4.0915 9.31268C4.05084 10.1692 4.04144 10.4411 4.04144 12.6134C4.04144 14.7857 4.05084 15.0576 4.08833 15.9109C4.12581 16.761 4.26341 17.3455 4.46035 17.8519C4.66351 18.3895 4.97912 18.8708 5.38545 19.2709C5.78556 19.6772 6.27002 19.993 6.80138 20.193C7.31088 20.3899 7.89216 20.5274 8.74243 20.5649C9.59562 20.6025 9.86764 20.6117 12.0399 20.6117C14.2122 20.6117 14.4841 20.6025 15.3375 20.5649C16.1876 20.5274 16.7721 20.3899 17.2784 20.193C18.3537 19.7772 19.2038 18.9271 19.6195 17.8519C19.8163 17.3424 19.9539 16.761 19.9914 15.9109C20.0289 15.0576 20.0383 14.7857 20.0383 12.6134C20.0383 10.4411 20.0351 10.1692 19.9977 9.31585ZM18.5568 15.8484C18.5224 16.6298 18.3911 17.0517 18.2818 17.333C18.0129 18.0301 17.4597 18.5833 16.7627 18.8521C16.4814 18.9615 16.0563 19.0928 15.278 19.1271C14.4341 19.1647 14.181 19.174 12.0462 19.174C9.91136 19.174 9.65508 19.1647 8.81422 19.1271C8.03282 19.0928 7.61086 18.9615 7.32956 18.8521C6.98269 18.7239 6.66695 18.5208 6.41068 18.2551C6.145 17.9956 5.94184 17.6831 5.81364 17.3362C5.70424 17.0549 5.57299 16.6298 5.53868 15.8515C5.50108 15.0076 5.4918 14.7544 5.4918 12.6196C5.4918 10.4848 5.50108 10.2285 5.53868 9.38777C5.57299 8.60636 5.70424 8.18441 5.81364 7.9031C5.94184 7.55611 6.145 7.2405 6.41385 6.9841C6.67318 6.71843 6.98574 6.51526 7.33273 6.38718C7.61403 6.27779 8.03917 6.14654 8.81739 6.11211C9.66131 6.07462 9.91453 6.06522 12.0492 6.06522C14.1872 6.06522 14.4403 6.07462 15.2812 6.11211C16.0626 6.14654 16.4845 6.27779 16.7658 6.38718C17.1127 6.51526 17.4284 6.71843 17.6847 6.9841C17.9504 7.24355 18.1536 7.55611 18.2818 7.9031C18.3911 8.18441 18.5224 8.60942 18.5568 9.38777C18.5943 10.2317 18.6037 10.4848 18.6037 12.6196C18.6037 14.7544 18.5943 15.0045 18.5568 15.8484Z"/>
    <path d="M12.043 8.50309C9.77388 8.50309 7.93283 10.344 7.93283 12.6133C7.93283 14.8825 9.77388 16.7234 12.043 16.7234C14.3122 16.7234 16.1532 14.8825 16.1532 12.6133C16.1532 10.344 14.3122 8.50309 12.043 8.50309ZM12.043 15.2794C10.5709 15.2794 9.37683 14.0855 9.37683 12.6133C9.37683 11.1411 10.5709 9.9471 12.043 9.9471C13.5152 9.9471 14.7092 11.1411 14.7092 12.6133C14.7092 14.0855 13.5152 15.2794 12.043 15.2794Z"/>
    <path d="M17.2753 8.34067C17.2753 8.87055 16.8457 9.3002 16.3156 9.3002C15.7858 9.3002 15.3561 8.87055 15.3561 8.34067C15.3561 7.81066 15.7858 7.38113 16.3156 7.38113C16.8457 7.38113 17.2753 7.81066 17.2753 8.34067Z"/>
</svg>
