<svg width="24" height="25" viewBox="0 0 24 25" fill="#E1FF28" xmlns="http://www.w3.org/2000/svg">
    <path fill-rule="evenodd" clip-rule="evenodd"
          d="M19.0427 6.97886C19.8137 7.17656 20.4216 7.7553 20.6291 8.48951C21.0148 9.83058 20.9999 12.6259 20.9999 12.6259C20.9999 12.6259 20.9999 15.407 20.6293 16.7482C20.4216 17.4823 19.8138 18.0612 19.0427 18.2588C17.6341 18.6118 12 18.6118 12 18.6118C12 18.6118 6.38048 18.6118 4.95721 18.2448C4.18611 18.0471 3.57829 17.4682 3.37065 16.7341C3 15.407 3 12.6118 3 12.6118C3 12.6118 3 9.83058 3.37065 8.48951C3.57815 7.75543 4.20094 7.16244 4.95707 6.96487C6.36565 6.61182 11.9998 6.61182 11.9998 6.61182C11.9998 6.61182 17.6341 6.61182 19.0427 6.97886ZM14.8911 12.6117L10.2059 15.1812V10.0423L14.8911 12.6117Z"/>
</svg>
