<svg width="44" height="44" viewBox="0 0 44 44" fill="none" xmlns="http://www.w3.org/2000/svg">
    <path fill-rule="evenodd" clip-rule="evenodd"
          d="M5.44119e-07 3.67601C5.44119e-07 2.70107 0.387292 1.76606 1.07668 1.07668C1.76606 0.387297 2.70106 4.90063e-06 3.676 4.90063e-06H40.32C40.8032 -0.000784203 41.2817 0.0937307 41.7283 0.278138C42.1749 0.462546 42.5807 0.733224 42.9225 1.07468C43.2643 1.41613 43.5354 1.82165 43.7203 2.26802C43.9052 2.7144 44.0003 3.19286 44 3.67601V40.32C44.0005 40.8032 43.9058 41.2819 43.7211 41.7284C43.5365 42.175 43.2656 42.5808 42.924 42.9226C42.5824 43.2644 42.1768 43.5355 41.7303 43.7204C41.2838 43.9052 40.8052 44.0003 40.322 44H3.676C3.19309 44 2.71492 43.9049 2.26879 43.72C1.82267 43.5351 1.41734 43.2642 1.07597 42.9226C0.734594 42.5811 0.463864 42.1756 0.279245 41.7294C0.0946265 41.2831 -0.000262191 40.8049 5.44119e-07 40.322V3.67601ZM17.416 16.776H23.374V19.768C24.234 18.048 26.434 16.5 29.74 16.5C36.078 16.5 37.58 19.926 37.58 26.212V37.856H31.166V27.644C31.166 24.064 30.306 22.044 28.122 22.044C25.092 22.044 23.832 24.222 23.832 27.644V37.856H17.416V16.776ZM6.416 37.582H12.832V16.5H6.416V37.58V37.582ZM13.75 9.624C13.7621 10.1734 13.6643 10.7196 13.4625 11.2306C13.2606 11.7417 12.9587 12.2073 12.5745 12.6001C12.1902 12.9929 11.7314 13.305 11.2249 13.518C10.7184 13.7311 10.1745 13.8408 9.625 13.8408C9.07552 13.8408 8.53158 13.7311 8.02509 13.518C7.5186 13.305 7.05978 12.9929 6.67554 12.6001C6.2913 12.2073 5.98939 11.7417 5.78752 11.2306C5.58566 10.7196 5.4879 10.1734 5.5 9.624C5.52375 8.54571 5.96877 7.51959 6.73977 6.76538C7.51077 6.01117 8.54645 5.58884 9.625 5.58884C10.7036 5.58884 11.7392 6.01117 12.5102 6.76538C13.2812 7.51959 13.7263 8.54571 13.75 9.624Z"
          fill="#E1FF28"/>
</svg>
