<svg width="16" height="16" viewBox="0 0 16 16" fill="none" xmlns="http://www.w3.org/2000/svg">
    <g clip-path="url(#clip0)">
        <path d="M15.397 0H11.0352C10.7021 0 10.4322 0.269937 10.4322 0.603031C10.4322 0.936094 10.7021 1.20603 11.0352 1.20603H14.794V4.96481C14.794 5.29787 15.0639 5.56781 15.397 5.56781C15.73 5.56781 16 5.29787 16 4.96481V0.603031C16 0.269937 15.7301 0 15.397 0Z"
              fill="#E1FF28"/>
        <path d="M15.8234 0.176695C15.5878 -0.0588984 15.2063 -0.0588984 14.9707 0.176695L6.36767 8.7797C6.13208 9.01507 6.13208 9.39698 6.36767 9.63235C6.48527 9.75013 6.63964 9.80904 6.79402 9.80904C6.94817 9.80904 7.10255 9.75013 7.22036 9.63235L15.8234 1.02935C16.059 0.793977 16.059 0.41207 15.8234 0.176695Z"
              fill="#E1FF28"/>
        <path d="M13.3468 7.49754C13.0137 7.49754 12.7437 7.76748 12.7437 8.10054V14.794H1.20603V3.25632H7.8995C8.23256 3.25632 8.5025 2.98639 8.5025 2.65332C8.5025 2.32026 8.23256 2.05029 7.8995 2.05029H0.603031C0.269938 2.05029 0 2.32023 0 2.65332V15.397C0 15.7301 0.269938 16 0.603031 16H13.3468C13.68 16 13.9497 15.7301 13.9497 15.397V8.10054C13.9497 7.76748 13.6798 7.49754 13.3468 7.49754Z"
              fill="#E1FF28"/>
    </g>
    <defs>
        <clipPath id="clip0">
            <rect width="16" height="16" fill="white"/>
        </clipPath>
    </defs>
</svg>
