<svg width="24" height="25" viewBox="0 0 24 25" fill="#E1FF28" xmlns="http://www.w3.org/2000/svg">
    <path d="M19.5637 7.16157L21 5.78757V5.48682H16.0245L12.4785 14.3128L8.4442 5.48682H3.22719V5.78757L4.90494 7.80732C5.06844 7.95657 5.15394 8.17482 5.13219 8.39457V16.3318C5.18394 16.6176 5.09094 16.9116 4.88994 17.1193L2.99994 19.4099V19.7069H8.3587V19.4061L6.4687 17.1193C6.26395 16.9108 6.1672 16.6221 6.20845 16.3318V9.46633L10.9125 19.7106H11.4592L15.504 9.46633V17.6271C15.504 17.8423 15.504 17.8866 15.363 18.0276L13.908 19.4354V19.7369H20.967V19.4361L19.5645 18.0628C19.4415 17.9698 19.3777 17.8138 19.404 17.6623V7.56207C19.3777 7.40982 19.4407 7.25382 19.5637 7.16157Z"/>
</svg>
