<svg fill="none" height="17" viewBox="0 0 20 17" width="20" xmlns="http://www.w3.org/2000/svg">
    <path d="M0 1.35714C0 0.962653 0.319797 0.642857 0.714286 0.642857H19.2857C19.6802 0.642857 20 0.962653 20 1.35714C20 1.75163 19.6802 2.07143 19.2857 2.07143H0.714285C0.319796 2.07143 0 1.75163 0 1.35714Z"
          fill="#E1FF28"/>
    <path d="M5.71429 8.5C5.71429 8.10551 6.03408 7.78571 6.42857 7.78571H19.2857C19.6802 7.78571 20 8.10551 20 8.5C20 8.89449 19.6802 9.21428 19.2857 9.21428H6.42857C6.03408 9.21428 5.71429 8.89449 5.71429 8.5Z"
          fill="#E1FF28"/>
    <path d="M12.8571 15.6429C12.8571 15.2484 13.1769 14.9286 13.5714 14.9286H19.2857C19.6802 14.9286 20 15.2484 20 15.6429C20 16.0373 19.6802 16.3571 19.2857 16.3571H13.5714C13.1769 16.3571 12.8571 16.0373 12.8571 15.6429Z"
          fill="#E1FF28"/>
</svg>