<svg width="24" height="25" viewBox="0 0 24 25" fill="#E1FF28" xmlns="http://www.w3.org/2000/svg">
    <path d="M21 7.0307C20.3306 7.32432 19.6174 7.51895 18.8738 7.61345C19.6388 7.1567 20.2226 6.43895 20.4971 5.57382C19.7839 5.99907 18.9964 6.29945 18.1571 6.46707C17.4799 5.74594 16.5146 5.29932 15.4616 5.29932C13.4186 5.29932 11.7739 6.95757 11.7739 8.99046C11.7739 9.28296 11.7986 9.56421 11.8594 9.83196C8.79146 9.68233 6.07683 8.21195 4.25319 5.97207C3.93482 6.52445 3.74807 7.1567 3.74807 7.83733C3.74807 9.11533 4.40619 10.2482 5.3872 10.9041C4.79432 10.8928 4.21269 10.7207 3.71994 10.4496C3.71994 10.4608 3.71994 10.4755 3.71994 10.4901C3.71994 12.2833 4.99907 13.7729 6.67645 14.116C6.37608 14.1981 6.0487 14.2375 5.70895 14.2375C5.4727 14.2375 5.2342 14.224 5.01032 14.1745C5.48845 15.6359 6.84521 16.7102 8.45846 16.7451C7.20296 17.7272 5.60882 18.319 3.88307 18.319C3.58044 18.319 3.29019 18.3055 2.99994 18.2684C4.63457 19.3225 6.57183 19.9244 8.66096 19.9244C15.4515 19.9244 19.164 14.2994 19.164 9.42358C19.164 9.26046 19.1584 9.10296 19.1505 8.94658C19.8829 8.42683 20.4983 7.7777 21 7.0307Z"/>
</svg>
