<svg width="204" height="32" viewBox="0 0 204 32" fill="none" xmlns="http://www.w3.org/2000/svg">
    <path d="M51.9571 25.1263C56.785 25.1263 60.2674 21.9341 60.2674 17.0007V14.9165H52.4848V18.5836H55.9408C55.5715 20.061 54.437 21.4065 51.9571 21.4065C48.8968 21.4065 47.2348 19.4014 47.2348 15.6816C47.2348 11.9617 48.8968 9.93034 51.9571 9.93034C54.5426 9.93034 55.6242 11.355 55.9144 12.8587H60.1355C59.7398 9.21802 56.6795 6.1841 51.9571 6.1841C46.0212 6.1841 43.0137 10.3524 43.0137 15.6816C43.0137 20.9316 46.0212 25.1263 51.9571 25.1263Z"
          fill="white"/>
    <path d="M67.2815 25.1263C71.7665 25.1263 74.1672 22.1188 74.1672 18.0032C74.1672 13.8612 71.7137 10.8537 67.2815 10.8537C62.8494 10.8537 60.3959 13.8612 60.3959 18.0032C60.3959 22.1452 62.7966 25.1263 67.2815 25.1263ZM67.2815 21.5648C65.6195 21.5648 64.5378 20.5095 64.5378 18.0032C64.5378 15.5233 65.5931 14.4153 67.2815 14.4153C68.97 14.4153 70.0253 15.4969 70.0253 18.0032C70.0253 20.5095 68.97 21.5648 67.2815 21.5648Z"
          fill="white"/>
    <path d="M74.8338 24.8889H78.8966V17.2381C78.8966 15.5761 79.9519 14.5472 81.4029 14.5472C83.0122 14.5472 83.7245 15.4969 83.7245 17.0798V24.8889H87.7873V15.8135C87.7873 12.7532 85.7295 10.8537 82.6692 10.8537C80.8752 10.8537 79.6617 11.5133 78.8966 12.4102H78.7911L78.4745 11.0911H74.8338V24.8889Z"
          fill="white"/>
    <path d="M88.844 24.8889H92.9068V17.2381C92.9068 15.5761 93.9621 14.5472 95.4131 14.5472C97.0224 14.5472 97.7347 15.4969 97.7347 17.0798V24.8889H101.798V15.8135C101.798 12.7532 99.7397 10.8537 96.6794 10.8537C94.8855 10.8537 93.6719 11.5133 92.9068 12.4102H92.8013L92.4847 11.0911H88.844V24.8889Z"
          fill="white"/>
    <path d="M107.023 25.1263C108.737 25.1263 109.951 24.5195 110.716 23.6489H110.822L111.112 24.8889H114.752V15.8135C114.752 12.9379 112.484 10.8537 108.711 10.8537C104.648 10.8537 102.775 13.0698 102.775 15.6552H106.574C106.574 14.811 107.313 14.1251 108.579 14.1251C110.083 14.1251 110.69 14.8638 110.69 15.8135V16.9479C110.136 16.7633 108.764 16.5522 107.735 16.5522C103.936 16.5522 102.195 18.2406 102.195 20.7997C102.195 23.2532 103.91 25.1263 107.023 25.1263ZM108.051 21.9605C106.838 21.9605 106.205 21.3801 106.205 20.5886C106.205 19.8499 106.891 19.2695 108.21 19.2695C109.001 19.2695 109.845 19.3751 110.69 19.718V19.8499C110.69 20.9844 109.714 21.9605 108.051 21.9605Z"
          fill="white"/>
    <path d="M122.411 24.8889H126.421V12.8851H126.526L132.04 21.8286H132.304L137.818 12.9643H137.923V24.8889H141.934V6.42154H137.449L132.251 14.8901H132.146L126.949 6.42154H122.411V24.8889Z"
          fill="white"/>
    <path d="M147.945 25.1263C149.66 25.1263 150.874 24.5195 151.639 23.6489H151.744L152.035 24.8889H155.675V15.8135C155.675 12.9379 153.407 10.8537 149.634 10.8537C145.571 10.8537 143.698 13.0698 143.698 15.6552H147.497C147.497 14.811 148.236 14.1251 149.502 14.1251C151.006 14.1251 151.613 14.8638 151.613 15.8135V16.9479C151.059 16.7633 149.687 16.5522 148.658 16.5522C144.859 16.5522 143.118 18.2406 143.118 20.7997C143.118 23.2532 144.832 25.1263 147.945 25.1263ZM148.974 21.9605C147.761 21.9605 147.128 21.3801 147.128 20.5886C147.128 19.8499 147.814 19.2695 149.133 19.2695C149.924 19.2695 150.768 19.3751 151.613 19.718V19.8499C151.613 20.9844 150.636 21.9605 148.974 21.9605Z"
          fill="white"/>
    <path d="M164.065 17.6075L169.658 11.355V11.0911H164.909L160.53 16.1037V5.36626H156.731V24.8889H160.53V19.2432L165.041 24.8889H169.948V24.6251L164.065 17.6075Z"
          fill="white"/>
    <path d="M175.06 25.1263C178.832 25.1263 181.022 22.9366 181.391 20.4567H177.46C177.223 21.0899 176.563 21.8286 175.06 21.8286C173.213 21.8286 172.395 20.6942 172.369 19.0849H181.576V17.5811C181.576 13.8349 179.202 10.8537 174.981 10.8537C170.496 10.8537 168.227 14.0987 168.227 18.0032C168.227 21.9605 170.707 25.1263 175.06 25.1263ZM172.395 16.5258C172.474 15.2067 173.239 14.1778 174.981 14.1778C176.59 14.1778 177.355 15.2067 177.434 16.5258H172.395Z"
          fill="white"/>
    <path d="M188.829 24.8889H192.998V6.42154H188.829V24.8889Z" fill="white"/>
    <path d="M200.908 25.1263C202.201 25.1263 203.283 24.8889 203.705 24.7306V21.3537H203.441C203.019 21.512 202.57 21.5911 202.122 21.5911C200.908 21.5911 200.354 21.0371 200.354 19.7444V14.5472H203.652V11.0911H200.354V7.47682H200.091L196.476 8.21551V11.0911H194.049V14.5472H196.292V20.7205C196.292 23.2268 197.716 25.1263 200.908 25.1263Z"
          fill="white"/>
    <path fill-rule="evenodd" clip-rule="evenodd"
          d="M16 29.8667C23.6584 29.8667 29.8667 23.6584 29.8667 16C29.8667 8.34165 23.6584 2.13333 16 2.13333C8.34165 2.13333 2.13333 8.34165 2.13333 16C2.13333 23.6584 8.34165 29.8667 16 29.8667ZM16 32C24.8366 32 32 24.8366 32 16C32 7.16344 24.8366 0 16 0C7.16344 0 0 7.16344 0 16C0 24.8366 7.16344 32 16 32Z"
          fill="#E1FF28"/>
    <path d="M20.3207 18.5756H18.4194C18.3778 18.5756 18.344 18.5419 18.344 18.5002V15.8842C18.344 15.8426 18.3778 15.8088 18.4194 15.8088H24.6905C24.7321 15.8088 24.7659 15.8426 24.7659 15.8842V18.5002C24.7659 18.5419 24.7321 18.5756 24.6905 18.5756H23.2262C22.2187 21.514 19.432 23.6262 16.152 23.6262C12.0228 23.6262 8.67535 20.2788 8.67535 16.1495C8.67535 12.0203 12.0228 8.6729 16.152 8.6729C19.2467 8.6729 21.9023 10.5532 23.0387 13.2337C23.0684 13.3036 23.0165 13.3805 22.9405 13.3805L20.2167 13.3805C20.0805 13.3805 19.9533 13.315 19.8673 13.2093C18.99 12.1297 17.6515 11.4399 16.1519 11.4399C13.5092 11.4399 11.3669 13.5822 11.3669 16.2249C11.3669 18.8676 13.5092 21.01 16.1519 21.01C17.9403 21.01 19.4995 20.0289 20.3207 18.5756Z"
          fill="#E1FF28"/>
</svg>
