<svg width="541" height="46" viewBox="0 0 541 46" fill="none" xmlns="http://www.w3.org/2000/svg">
    <path d="M33.038 33.22H24.668C18.778 33.22 14.748 29.128 14.748 23.3C14.748 17.72 18.778 13.566 24.668 13.566H33.038C37.75 13.566 41.284 16.48 42.524 20.262H56.66C55.296 8.54402 45.872 0.856018 33.038 0.856018H24.668C10.78 0.856018 0.860001 9.90802 0.860001 23.3C0.860001 36.754 11.09 45.744 24.668 45.744H33.038C45.872 45.744 55.296 38.056 56.66 26.338H42.524C41.284 30.182 37.75 33.22 33.038 33.22Z"
          fill="white"/>
    <path d="M99.1276 1.60002V16.79H75.2576V1.60002H61.6176V45H75.2576V28.88H99.1276V45H112.768V1.60002H99.1276Z"
          fill="white"/>
    <path d="M159.846 45H173.672L162.202 1.60002H129.156L117.686 45H131.45L133.248 38.118H158.048L159.846 45ZM136.348 26.028L139.572 13.566H151.662L154.886 26.028H136.348Z"
          fill="white"/>
    <path d="M191.023 33.034V1.60002H177.383V45H219.667V33.034H191.023Z" fill="white"/>
    <path d="M239.521 33.034V1.60002H225.881V45H268.165V33.034H239.521Z" fill="white"/>
    <path d="M317.965 13.38V1.60002H274.379V45H317.965V33.158H288.019V29.004H313.749V17.72H288.019V13.38H317.965Z"
          fill="white"/>
    <path d="M362.589 1.60002V25.532L337.541 1.60002H324.149V45H337.541V20.758L362.589 45H375.981V1.60002H362.589Z"
          fill="white"/>
    <path d="M404.721 45.744H413.091C426.979 45.744 436.713 35.762 436.713 23.3V20.634L408.999 20.572V30.492H420.407C419.539 31.98 416.749 33.592 413.091 33.592H404.721C398.707 33.592 394.801 29.314 394.801 23.486C394.801 17.72 398.707 13.566 404.721 13.566H413.091C416.563 13.566 419.291 15.116 420.841 17.162H436.155C433.613 7.18002 424.747 0.856018 413.091 0.856018H404.721C390.833 0.856018 380.913 9.90802 380.913 23.3C380.913 36.754 391.143 45.744 404.721 45.744Z"
          fill="white"/>
    <path d="M485.256 13.38V1.60002H441.67V45H485.256V33.158H455.31V29.004H481.04V17.72H455.31V13.38H485.256Z"
          fill="white"/>
    <path d="M525.23 17.596H508.924C506.134 17.596 505.08 16.604 505.08 15.302C505.08 14 506.258 12.574 511.404 12.574H519.836C524.3 12.574 525.974 14.124 526.222 15.922H539.924C539.924 11.706 537.754 0.856018 520.208 0.856018H511.404C496.09 0.918017 491.192 8.42002 491.192 15.984C491.192 23.672 496.648 28.632 507.436 28.632H522.688C525.85 28.632 526.904 29.686 526.904 30.926C526.904 32.6 524.858 33.592 519.96 33.592H511.59C507.188 33.592 504.584 32.414 504.212 30.244H490.51C490.51 36.072 493.362 45.744 510.722 45.744H519.96C534.53 45.682 540.854 39.606 540.854 30.678C540.854 22.99 535.522 17.596 525.23 17.596Z"
          fill="white"/>
</svg>
