<svg width="241" height="178" viewBox="0 0 241 178" fill="none" xmlns="http://www.w3.org/2000/svg">
    <path d="M0.768 144.08H4.512L7.648 162.928H8.32L12.48 144.144H16.64L20.8 162.928H21.504L24.64 144.08H28.384L24.064 166H18.336L14.56 148.432L10.816 166H5.056L0.768 144.08ZM42.6395 154.928V162.224C42.6608 162.693 42.7782 163.045 42.9915 163.28C43.2262 163.493 43.5782 163.632 44.0475 163.696L43.9515 166.352C42.1168 166.352 40.6982 165.957 39.6955 165.168C37.9888 165.957 36.2715 166.352 34.5435 166.352C31.3648 166.352 29.7755 164.656 29.7755 161.264C29.7755 159.643 30.2022 158.469 31.0555 157.744C31.9302 157.019 33.2635 156.581 35.0555 156.432L39.1835 156.08V154.928C39.1835 154.075 38.9915 153.477 38.6075 153.136C38.2448 152.795 37.7008 152.624 36.9755 152.624C35.6102 152.624 33.9035 152.709 31.8555 152.88L30.8315 152.944L30.7035 150.48C33.0288 149.925 35.1622 149.648 37.1035 149.648C39.0662 149.648 40.4742 150.075 41.3275 150.928C42.2022 151.76 42.6395 153.093 42.6395 154.928ZM35.4715 158.896C33.9995 159.024 33.2635 159.824 33.2635 161.296C33.2635 162.768 33.9142 163.504 35.2155 163.504C36.2822 163.504 37.4128 163.333 38.6075 162.992L39.1835 162.8V158.544L35.4715 158.896ZM47.2103 166V143.344H50.6983V166H47.2103ZM55.304 166V143.344H58.792V166H55.304ZM74.5978 163.12L75.4938 163.024L75.5578 165.616C73.1258 166.107 70.9711 166.352 69.0938 166.352C66.7258 166.352 65.0191 165.701 63.9738 164.4C62.9498 163.099 62.4378 161.019 62.4378 158.16C62.4378 152.485 64.7524 149.648 69.3818 149.648C73.8618 149.648 76.1018 152.091 76.1018 156.976L75.8778 159.472H65.9578C65.9791 160.795 66.2671 161.765 66.8218 162.384C67.3764 163.003 68.4111 163.312 69.9258 163.312C71.4404 163.312 72.9978 163.248 74.5978 163.12ZM72.6778 156.784C72.6778 155.205 72.4218 154.107 71.9098 153.488C71.4191 152.848 70.5764 152.528 69.3818 152.528C68.1871 152.528 67.3124 152.859 66.7578 153.52C66.2244 154.181 65.9471 155.269 65.9258 156.784H72.6778ZM88.0638 152.976H83.6478V160.016C83.6478 161.317 83.7438 162.181 83.9358 162.608C84.1278 163.035 84.6184 163.248 85.4078 163.248L88.0318 163.152L88.1918 165.936C86.7624 166.213 85.6744 166.352 84.9278 166.352C83.1144 166.352 81.8664 165.936 81.1838 165.104C80.5224 164.272 80.1918 162.704 80.1918 160.4V152.976H78.1438V150H80.1918V145.36H83.6478V150H88.0638V152.976ZM105.732 166.352C102.532 166.352 100.356 165.467 99.2038 163.696C98.0731 161.925 97.5078 159.013 97.5078 154.96C97.5078 150.907 98.0838 148.027 99.2358 146.32C100.388 144.592 102.553 143.728 105.732 143.728C107.63 143.728 109.721 143.995 112.004 144.528L111.876 147.408C109.956 147.067 108.036 146.896 106.116 146.896C104.196 146.896 102.894 147.472 102.212 148.624C101.529 149.755 101.188 151.899 101.188 155.056C101.188 158.192 101.518 160.336 102.18 161.488C102.841 162.619 104.132 163.184 106.052 163.184C107.972 163.184 109.913 163.024 111.876 162.704L111.972 165.648C109.774 166.117 107.694 166.352 105.732 166.352ZM115.945 151.728C117.054 150.341 118.889 149.648 121.449 149.648C124.009 149.648 125.833 150.341 126.921 151.728C128.03 153.115 128.585 155.195 128.585 157.968C128.585 160.741 128.051 162.832 126.985 164.24C125.918 165.648 124.073 166.352 121.449 166.352C118.825 166.352 116.979 165.648 115.913 164.24C114.846 162.832 114.313 160.741 114.313 157.968C114.313 155.195 114.857 153.115 115.945 151.728ZM118.569 162.128C119.059 162.981 120.019 163.408 121.449 163.408C122.878 163.408 123.838 162.981 124.329 162.128C124.819 161.275 125.065 159.877 125.065 157.936C125.065 155.995 124.798 154.619 124.265 153.808C123.753 152.997 122.814 152.592 121.449 152.592C120.083 152.592 119.134 152.997 118.601 153.808C118.089 154.619 117.833 155.995 117.833 157.936C117.833 159.877 118.078 161.275 118.569 162.128ZM135.538 166H132.049V150H135.506V150.992C137.063 150.096 138.535 149.648 139.922 149.648C142.055 149.648 143.506 150.256 144.274 151.472C145.063 152.667 145.458 154.651 145.458 157.424V166H142.002V157.52C142.002 155.792 141.81 154.565 141.426 153.84C141.063 153.115 140.306 152.752 139.154 152.752C138.066 152.752 137.02 152.965 136.018 153.392L135.538 153.584V166ZM153.006 166H149.518V150H152.974V150.992C154.532 150.096 156.004 149.648 157.39 149.648C159.524 149.648 160.974 150.256 161.742 151.472C162.532 152.667 162.926 154.651 162.926 157.424V166H159.47V157.52C159.47 155.792 159.278 154.565 158.894 153.84C158.532 153.115 157.774 152.752 156.622 152.752C155.534 152.752 154.489 152.965 153.486 153.392L153.006 153.584V166ZM178.379 163.12L179.275 163.024L179.339 165.616C176.907 166.107 174.752 166.352 172.875 166.352C170.507 166.352 168.8 165.701 167.755 164.4C166.731 163.099 166.219 161.019 166.219 158.16C166.219 152.485 168.534 149.648 173.163 149.648C177.643 149.648 179.883 152.091 179.883 156.976L179.659 159.472H169.739C169.76 160.795 170.048 161.765 170.603 162.384C171.158 163.003 172.192 163.312 173.707 163.312C175.222 163.312 176.779 163.248 178.379 163.12ZM176.459 156.784C176.459 155.205 176.203 154.107 175.691 153.488C175.2 152.848 174.358 152.528 173.163 152.528C171.968 152.528 171.094 152.859 170.539 153.52C170.006 154.181 169.728 155.269 169.707 156.784H176.459ZM189.221 149.648C190.352 149.648 191.685 149.797 193.221 150.096L194.021 150.256L193.893 153.008C192.208 152.837 190.96 152.752 190.149 152.752C188.528 152.752 187.44 153.115 186.885 153.84C186.33 154.565 186.053 155.931 186.053 157.936C186.053 159.941 186.32 161.328 186.853 162.096C187.386 162.864 188.496 163.248 190.181 163.248L193.925 162.992L194.021 165.776C191.866 166.16 190.245 166.352 189.157 166.352C186.725 166.352 185.008 165.701 184.005 164.4C183.024 163.077 182.533 160.923 182.533 157.936C182.533 154.949 183.056 152.827 184.101 151.568C185.146 150.288 186.853 149.648 189.221 149.648ZM206.001 152.976H201.585V160.016C201.585 161.317 201.681 162.181 201.873 162.608C202.065 163.035 202.556 163.248 203.345 163.248L205.969 163.152L206.129 165.936C204.7 166.213 203.612 166.352 202.865 166.352C201.052 166.352 199.804 165.936 199.121 165.104C198.46 164.272 198.129 162.704 198.129 160.4V152.976H196.081V150H198.129V145.36H201.585V150H206.001V152.976ZM220.254 163.12L221.15 163.024L221.214 165.616C218.782 166.107 216.627 166.352 214.75 166.352C212.382 166.352 210.675 165.701 209.63 164.4C208.606 163.099 208.094 161.019 208.094 158.16C208.094 152.485 210.409 149.648 215.038 149.648C219.518 149.648 221.758 152.091 221.758 156.976L221.534 159.472H211.614C211.635 160.795 211.923 161.765 212.478 162.384C213.033 163.003 214.067 163.312 215.582 163.312C217.097 163.312 218.654 163.248 220.254 163.12ZM218.334 156.784C218.334 155.205 218.078 154.107 217.566 153.488C217.075 152.848 216.233 152.528 215.038 152.528C213.843 152.528 212.969 152.859 212.414 153.52C211.881 154.181 211.603 155.269 211.582 156.784H218.334ZM238.168 143.344V166H234.712V165.168C233.155 165.957 231.725 166.352 230.424 166.352C228.333 166.352 226.797 165.723 225.816 164.464C224.856 163.205 224.376 161.093 224.376 158.128C224.376 155.163 224.909 153.008 225.976 151.664C227.064 150.32 228.749 149.648 231.032 149.648C231.8 149.648 233.016 149.787 234.68 150.064V143.344H238.168ZM234.136 162.672L234.68 162.448V152.976C233.4 152.763 232.216 152.656 231.128 152.656C228.973 152.656 227.896 154.448 227.896 158.032C227.896 159.995 228.141 161.36 228.632 162.128C229.144 162.875 229.944 163.248 231.032 163.248C232.12 163.248 233.155 163.056 234.136 162.672Z"
          fill="white"/>
    <circle opacity="0.1" cx="120.5" cy="53.5" r="53.5" fill="#28FF7E"/>
    <path d="M134.447 46.3073V29.2734C134.447 26.3657 132.081 24 129.173 24C126.266 24 123.9 26.3657 123.9 29.2734V35.0824C120.988 34.0499 117.852 35.7445 117.055 38.6696C115.863 38.1953 114.548 38.1754 113.353 38.5992V32.7891C113.353 29.8813 110.987 27.5156 108.08 27.5156C105.172 27.5156 102.806 29.8813 102.806 32.7891V56.7673C102.806 57.4852 102.894 58.2022 103.069 58.8989L105.522 68.711C106.072 70.914 107.743 72.5927 109.837 73.203V82.2422C109.837 83.213 110.624 84 111.595 84H129.173C130.144 84 130.931 83.213 130.931 82.2422V73.2052C133.022 72.6039 134.728 70.9575 135.345 68.7979L138.85 56.5317C140.055 52.3139 137.978 48.1392 134.447 46.3073ZM127.416 29.2734C127.416 28.3042 128.204 27.5156 129.173 27.5156C130.143 27.5156 130.931 28.3042 130.931 29.2734V45.3281C129.61 45.3281 128.736 45.3281 127.416 45.3281V29.2734ZM120.384 43.5703V40.0547C120.384 39.0854 121.173 38.2969 122.142 38.2969C123.111 38.2969 123.9 39.0854 123.9 40.0547V45.3281C122.059 45.3281 121.427 45.2605 120.384 45.6305V43.5703ZM113.353 43.5703C113.353 42.6011 114.142 41.8125 115.111 41.8125C116.08 41.8125 116.869 42.6011 116.869 43.5703V47.0859C116.869 48.0552 116.08 48.8438 115.111 48.8438C114.142 48.8438 113.353 48.0552 113.353 47.0859V43.5703ZM135.469 55.5659L131.965 67.8321C131.61 69.0717 130.463 69.9375 129.173 69.9375C128.203 69.9375 127.416 70.7245 127.416 71.6953V80.4844H113.353V71.6953C113.353 70.7252 112.566 69.9375 111.595 69.9375C110.333 69.9375 109.238 69.0825 108.932 67.8584L106.479 58.0464C106.375 57.6284 106.322 57.198 106.322 56.7673V32.7891C106.322 31.8198 107.11 31.0312 108.079 31.0312C109.049 31.0312 109.837 31.8198 109.837 32.7891C109.837 33.1615 109.837 44.41 109.837 47.0859C109.837 49.9937 112.203 52.3594 115.111 52.3594C115.797 52.3594 116.452 52.2261 117.054 51.9866C117.405 53.2719 118.23 54.3626 119.329 55.0588C117.807 56.6398 116.869 58.7859 116.869 61.1484C116.869 62.1192 117.656 62.9062 118.626 62.9062C119.597 62.9062 120.384 62.1192 120.384 61.1484C120.384 58.2407 122.75 55.875 125.658 55.875H129.173C130.144 55.875 130.931 55.088 130.931 54.1172C130.931 53.1464 130.144 52.3594 129.173 52.3594C128.428 52.3594 122.887 52.3594 122.142 52.3594C121.173 52.3594 120.384 51.5708 120.384 50.6016C120.384 49.6323 121.173 48.8438 122.142 48.8438C123.216 48.8438 129.164 48.8438 130.399 48.8438C133.904 48.8438 136.433 52.1938 135.469 55.5659Z"
          fill="#28FF7E"/>
</svg>
