<svg width="352" height="23" viewBox="0 0 352 23" fill="none" xmlns="http://www.w3.org/2000/svg">
    <path d="M6.416 17.264C4.016 17.264 2.384 16.6 1.52 15.272C0.672 13.944 0.248 11.76 0.248 8.72C0.248 5.68 0.68 3.52 1.544 2.24C2.408 0.943999 4.032 0.295999 6.416 0.295999C7.84 0.295999 9.408 0.495999 11.12 0.896L11.024 3.056C9.584 2.8 8.144 2.672 6.704 2.672C5.264 2.672 4.288 3.104 3.776 3.968C3.264 4.816 3.008 6.424 3.008 8.792C3.008 11.144 3.256 12.752 3.752 13.616C4.248 14.464 5.216 14.888 6.656 14.888C8.096 14.888 9.552 14.768 11.024 14.528L11.096 16.736C9.448 17.088 7.888 17.264 6.416 17.264ZM13.6387 17V5H16.2307V6.44C17.5907 5.56 18.9507 4.992 20.3107 4.736V7.352C18.9347 7.624 17.7587 7.976 16.7827 8.408L16.2547 8.624V17H13.6387ZM30.7608 14.84L31.4328 14.768L31.4808 16.712C29.6568 17.08 28.0408 17.264 26.6328 17.264C24.8568 17.264 23.5768 16.776 22.7928 15.8C22.0248 14.824 21.6408 13.264 21.6408 11.12C21.6408 6.864 23.3768 4.736 26.8488 4.736C30.2088 4.736 31.8888 6.568 31.8888 10.232L31.7208 12.104H24.2808C24.2968 13.096 24.5128 13.824 24.9288 14.288C25.3448 14.752 26.1208 14.984 27.2568 14.984C28.3928 14.984 29.5608 14.936 30.7608 14.84ZM29.3208 10.088C29.3208 8.904 29.1288 8.08 28.7448 7.616C28.3768 7.136 27.7448 6.896 26.8488 6.896C25.9528 6.896 25.2968 7.144 24.8808 7.64C24.4808 8.136 24.2728 8.952 24.2568 10.088H29.3208ZM43.2843 8.696V14.168C43.3003 14.52 43.3883 14.784 43.5483 14.96C43.7243 15.12 43.9883 15.224 44.3403 15.272L44.2683 17.264C42.8923 17.264 41.8283 16.968 41.0763 16.376C39.7963 16.968 38.5083 17.264 37.2123 17.264C34.8283 17.264 33.6363 15.992 33.6363 13.448C33.6363 12.232 33.9563 11.352 34.5963 10.808C35.2523 10.264 36.2523 9.936 37.5963 9.824L40.6923 9.56V8.696C40.6923 8.056 40.5483 7.608 40.2603 7.352C39.9883 7.096 39.5803 6.968 39.0363 6.968C38.0123 6.968 36.7323 7.032 35.1963 7.16L34.4283 7.208L34.3323 5.36C36.0763 4.944 37.6763 4.736 39.1323 4.736C40.6043 4.736 41.6603 5.056 42.3003 5.696C42.9563 6.32 43.2843 7.32 43.2843 8.696ZM37.9083 11.672C36.8043 11.768 36.2523 12.368 36.2523 13.472C36.2523 14.576 36.7403 15.128 37.7163 15.128C38.5163 15.128 39.3643 15 40.2603 14.744L40.6923 14.6V11.408L37.9083 11.672ZM53.0244 7.232H49.7124V12.512C49.7124 13.488 49.7844 14.136 49.9284 14.456C50.0724 14.776 50.4404 14.936 51.0324 14.936L53.0004 14.864L53.1204 16.952C52.0484 17.16 51.2324 17.264 50.6724 17.264C49.3124 17.264 48.3764 16.952 47.8644 16.328C47.3684 15.704 47.1204 14.528 47.1204 12.8V7.232H45.5844V5H47.1204V1.52H49.7124V5H53.0244V7.232ZM63.7139 14.84L64.3859 14.768L64.4339 16.712C62.6099 17.08 60.9939 17.264 59.5859 17.264C57.8099 17.264 56.5299 16.776 55.7459 15.8C54.9779 14.824 54.5939 13.264 54.5939 11.12C54.5939 6.864 56.3299 4.736 59.8019 4.736C63.1619 4.736 64.8419 6.568 64.8419 10.232L64.6739 12.104H57.2339C57.2499 13.096 57.4659 13.824 57.8819 14.288C58.2979 14.752 59.0739 14.984 60.2099 14.984C61.3459 14.984 62.5139 14.936 63.7139 14.84ZM62.2739 10.088C62.2739 8.904 62.0819 8.08 61.6979 7.616C61.3299 7.136 60.6979 6.896 59.8019 6.896C58.9059 6.896 58.2499 7.144 57.8339 7.64C57.4339 8.136 57.2259 8.952 57.2099 10.088H62.2739ZM66.3974 19.952L67.5494 14.024H70.4294L68.5094 19.952H66.3974ZM78.5371 22.16V5H81.1291V5.744C82.2331 5.072 83.2651 4.736 84.2251 4.736C85.8091 4.736 86.9691 5.224 87.7051 6.2C88.4411 7.16 88.8091 8.784 88.8091 11.072C88.8091 13.344 88.3851 14.944 87.5371 15.872C86.7051 16.8 85.3371 17.264 83.4331 17.264C82.7771 17.264 82.0171 17.192 81.1531 17.048V22.16H78.5371ZM83.7691 7.064C83.0171 7.064 82.2651 7.232 81.5131 7.568L81.1531 7.736V14.816C81.7931 14.944 82.4971 15.008 83.2651 15.008C84.3531 15.008 85.1051 14.696 85.5211 14.072C85.9371 13.448 86.1451 12.384 86.1451 10.88C86.1451 8.336 85.3531 7.064 83.7691 7.064ZM91.5718 17V0.0079999H94.1878V17H91.5718ZM106.378 8.696V14.168C106.394 14.52 106.482 14.784 106.642 14.96C106.818 15.12 107.082 15.224 107.434 15.272L107.362 17.264C105.986 17.264 104.922 16.968 104.17 16.376C102.89 16.968 101.602 17.264 100.306 17.264C97.9221 17.264 96.7301 15.992 96.7301 13.448C96.7301 12.232 97.0501 11.352 97.6901 10.808C98.3461 10.264 99.3461 9.936 100.69 9.824L103.786 9.56V8.696C103.786 8.056 103.642 7.608 103.354 7.352C103.082 7.096 102.674 6.968 102.13 6.968C101.106 6.968 99.8261 7.032 98.2901 7.16L97.5221 7.208L97.4261 5.36C99.1701 4.944 100.77 4.736 102.226 4.736C103.698 4.736 104.754 5.056 105.394 5.696C106.05 6.32 106.378 7.32 106.378 8.696ZM101.002 11.672C99.8981 11.768 99.3461 12.368 99.3461 13.472C99.3461 14.576 99.8341 15.128 100.81 15.128C101.61 15.128 102.458 15 103.354 14.744L103.786 14.6V11.408L101.002 11.672ZM108.418 5H110.986L113.53 14.768H114.178L116.722 5H119.314L114.754 22.16H112.186L113.626 17H111.562L108.418 5ZM127.255 6.296C128.087 5.256 129.463 4.736 131.383 4.736C133.303 4.736 134.671 5.256 135.487 6.296C136.319 7.336 136.735 8.896 136.735 10.976C136.735 13.056 136.335 14.624 135.535 15.68C134.735 16.736 133.351 17.264 131.383 17.264C129.415 17.264 128.031 16.736 127.231 15.68C126.431 14.624 126.031 13.056 126.031 10.976C126.031 8.896 126.439 7.336 127.255 6.296ZM129.223 14.096C129.591 14.736 130.311 15.056 131.383 15.056C132.455 15.056 133.175 14.736 133.543 14.096C133.911 13.456 134.095 12.408 134.095 10.952C134.095 9.496 133.895 8.464 133.495 7.856C133.111 7.248 132.407 6.944 131.383 6.944C130.359 6.944 129.647 7.248 129.247 7.856C128.863 8.464 128.671 9.496 128.671 10.952C128.671 12.408 128.855 13.456 129.223 14.096ZM139.334 17V5H141.926V6.44C143.286 5.56 144.646 4.992 146.006 4.736V7.352C144.63 7.624 143.454 7.976 142.478 8.408L141.95 8.624V17H139.334ZM153.279 17V5H155.895V17H153.279ZM153.279 2.96V0.199999H155.895V2.96H153.279ZM161.684 17H159.068V5H161.66V5.744C162.828 5.072 163.932 4.736 164.972 4.736C166.572 4.736 167.66 5.192 168.236 6.104C168.828 7 169.124 8.488 169.124 10.568V17H166.532V10.64C166.532 9.344 166.388 8.424 166.1 7.88C165.828 7.336 165.26 7.064 164.396 7.064C163.58 7.064 162.796 7.224 162.044 7.544L161.684 7.688V17ZM170.925 5H173.661L175.965 14.768H176.733L179.133 5H181.797L178.677 17H174.021L170.925 5ZM192.198 14.84L192.87 14.768L192.918 16.712C191.094 17.08 189.478 17.264 188.07 17.264C186.294 17.264 185.014 16.776 184.23 15.8C183.462 14.824 183.078 13.264 183.078 11.12C183.078 6.864 184.814 4.736 188.286 4.736C191.646 4.736 193.326 6.568 193.326 10.232L193.158 12.104H185.718C185.734 13.096 185.95 13.824 186.366 14.288C186.782 14.752 187.558 14.984 188.694 14.984C189.83 14.984 190.998 14.936 192.198 14.84ZM190.758 10.088C190.758 8.904 190.566 8.08 190.182 7.616C189.814 7.136 189.182 6.896 188.286 6.896C187.39 6.896 186.734 7.144 186.318 7.64C185.918 8.136 185.71 8.952 185.694 10.088H190.758ZM204.17 7.472C202.282 7.216 200.914 7.088 200.066 7.088C199.218 7.088 198.626 7.192 198.29 7.4C197.97 7.592 197.81 7.904 197.81 8.336C197.81 8.768 197.986 9.072 198.338 9.248C198.706 9.424 199.554 9.632 200.882 9.872C202.226 10.096 203.178 10.456 203.738 10.952C204.298 11.448 204.578 12.328 204.578 13.592C204.578 14.856 204.17 15.784 203.354 16.376C202.554 16.968 201.378 17.264 199.826 17.264C198.85 17.264 197.618 17.128 196.13 16.856L195.386 16.736L195.482 14.552C197.402 14.808 198.786 14.936 199.634 14.936C200.482 14.936 201.082 14.832 201.434 14.624C201.802 14.416 201.986 14.072 201.986 13.592C201.986 13.112 201.81 12.784 201.458 12.608C201.122 12.416 200.298 12.216 198.986 12.008C197.69 11.784 196.738 11.44 196.13 10.976C195.522 10.512 195.218 9.664 195.218 8.432C195.218 7.2 195.634 6.28 196.466 5.672C197.314 5.064 198.394 4.76 199.706 4.76C200.73 4.76 201.986 4.888 203.474 5.144L204.218 5.288L204.17 7.472ZM213.548 7.232H210.236V12.512C210.236 13.488 210.308 14.136 210.452 14.456C210.596 14.776 210.964 14.936 211.556 14.936L213.524 14.864L213.644 16.952C212.572 17.16 211.756 17.264 211.196 17.264C209.836 17.264 208.9 16.952 208.388 16.328C207.892 15.704 207.644 14.528 207.644 12.8V7.232H206.108V5H207.644V1.52H210.236V5H213.548V7.232ZM220.967 17V5H223.583V17H220.967ZM220.967 2.96V0.199999H223.583V2.96H220.967ZM229.372 17H226.756V5H229.348V5.744C230.516 5.072 231.62 4.736 232.66 4.736C234.26 4.736 235.348 5.192 235.924 6.104C236.516 7 236.812 8.488 236.812 10.568V17H234.22V10.64C234.22 9.344 234.076 8.424 233.788 7.88C233.516 7.336 232.948 7.064 232.084 7.064C231.268 7.064 230.484 7.224 229.732 7.544L229.372 7.688V17ZM249.619 4.736C250.467 4.736 251.467 4.848 252.619 5.072L253.219 5.192L253.123 7.256C251.859 7.128 250.923 7.064 250.315 7.064C249.099 7.064 248.283 7.336 247.867 7.88C247.451 8.424 247.243 9.448 247.243 10.952C247.243 12.456 247.443 13.496 247.843 14.072C248.243 14.648 249.075 14.936 250.339 14.936L253.147 14.744L253.219 16.832C251.603 17.12 250.387 17.264 249.571 17.264C247.747 17.264 246.459 16.776 245.707 15.8C244.971 14.808 244.603 13.192 244.603 10.952C244.603 8.712 244.995 7.12 245.779 6.176C246.563 5.216 247.843 4.736 249.619 4.736ZM258.364 17H255.748V0.0079999H258.364V5.624C259.548 5.032 260.644 4.736 261.652 4.736C263.252 4.736 264.34 5.192 264.916 6.104C265.508 7 265.804 8.488 265.804 10.568V17H263.188V10.64C263.188 9.344 263.052 8.424 262.78 7.88C262.508 7.336 261.932 7.064 261.052 7.064C260.284 7.064 259.516 7.192 258.748 7.448L258.364 7.592V17ZM277.73 8.696V14.168C277.746 14.52 277.834 14.784 277.994 14.96C278.17 15.12 278.434 15.224 278.786 15.272L278.714 17.264C277.338 17.264 276.274 16.968 275.522 16.376C274.242 16.968 272.954 17.264 271.658 17.264C269.274 17.264 268.082 15.992 268.082 13.448C268.082 12.232 268.402 11.352 269.042 10.808C269.698 10.264 270.698 9.936 272.042 9.824L275.138 9.56V8.696C275.138 8.056 274.994 7.608 274.706 7.352C274.434 7.096 274.026 6.968 273.482 6.968C272.458 6.968 271.178 7.032 269.642 7.16L268.874 7.208L268.778 5.36C270.522 4.944 272.122 4.736 273.578 4.736C275.05 4.736 276.106 5.056 276.746 5.696C277.402 6.32 277.73 7.32 277.73 8.696ZM272.354 11.672C271.25 11.768 270.698 12.368 270.698 13.472C270.698 14.576 271.186 15.128 272.162 15.128C272.962 15.128 273.81 15 274.706 14.744L275.138 14.6V11.408L272.354 11.672ZM281.158 17V0.0079999H283.774V17H281.158ZM287.228 17V0.0079999H289.844V17H287.228ZM301.698 14.84L302.37 14.768L302.418 16.712C300.594 17.08 298.978 17.264 297.57 17.264C295.794 17.264 294.514 16.776 293.73 15.8C292.962 14.824 292.578 13.264 292.578 11.12C292.578 6.864 294.314 4.736 297.786 4.736C301.146 4.736 302.826 6.568 302.826 10.232L302.658 12.104H295.218C295.234 13.096 295.45 13.824 295.866 14.288C296.282 14.752 297.058 14.984 298.194 14.984C299.33 14.984 300.498 14.936 301.698 14.84ZM300.258 10.088C300.258 8.904 300.066 8.08 299.682 7.616C299.314 7.136 298.682 6.896 297.786 6.896C296.89 6.896 296.234 7.144 295.818 7.64C295.418 8.136 295.21 8.952 295.194 10.088H300.258ZM307.958 17H305.342V5H307.934V5.744C309.102 5.072 310.206 4.736 311.246 4.736C312.846 4.736 313.934 5.192 314.51 6.104C315.102 7 315.398 8.488 315.398 10.568V17H312.806V10.64C312.806 9.344 312.662 8.424 312.374 7.88C312.102 7.336 311.534 7.064 310.67 7.064C309.854 7.064 309.07 7.224 308.318 7.544L307.958 7.688V17ZM328.931 18.632C328.931 21.256 327.035 22.568 323.243 22.568C321.419 22.568 320.067 22.32 319.187 21.824C318.307 21.328 317.867 20.424 317.867 19.112C317.867 18.52 318.011 18.008 318.299 17.576C318.587 17.16 319.051 16.704 319.691 16.208C319.163 15.856 318.899 15.272 318.899 14.456C318.899 14.136 319.115 13.616 319.547 12.896L319.763 12.536C318.611 11.848 318.035 10.648 318.035 8.936C318.035 7.496 318.467 6.44 319.331 5.768C320.195 5.096 321.363 4.76 322.835 4.76C323.539 4.76 324.235 4.84 324.923 5L325.283 5.072L329.003 4.976V7.088L327.011 6.968C327.443 7.528 327.659 8.184 327.659 8.936C327.659 10.504 327.259 11.592 326.459 12.2C325.675 12.792 324.443 13.088 322.763 13.088C322.347 13.088 321.995 13.056 321.707 12.992C321.483 13.536 321.371 13.96 321.371 14.264C321.371 14.552 321.515 14.752 321.803 14.864C322.107 14.976 322.827 15.04 323.963 15.056C325.867 15.072 327.171 15.328 327.875 15.824C328.579 16.32 328.931 17.256 328.931 18.632ZM320.435 18.872C320.435 19.432 320.659 19.832 321.107 20.072C321.555 20.312 322.323 20.432 323.411 20.432C325.347 20.432 326.315 19.88 326.315 18.776C326.315 18.152 326.139 17.752 325.787 17.576C325.451 17.416 324.771 17.328 323.747 17.312L321.395 17.168C321.043 17.456 320.795 17.72 320.651 17.96C320.507 18.216 320.435 18.52 320.435 18.872ZM320.627 8.936C320.627 9.672 320.803 10.216 321.155 10.568C321.507 10.904 322.075 11.072 322.859 11.072C323.643 11.072 324.203 10.904 324.539 10.568C324.891 10.216 325.067 9.672 325.067 8.936C325.067 8.2 324.891 7.664 324.539 7.328C324.187 6.976 323.619 6.8 322.835 6.8C321.363 6.8 320.627 7.512 320.627 8.936ZM339.597 14.84L340.269 14.768L340.317 16.712C338.493 17.08 336.877 17.264 335.469 17.264C333.693 17.264 332.413 16.776 331.629 15.8C330.861 14.824 330.477 13.264 330.477 11.12C330.477 6.864 332.213 4.736 335.685 4.736C339.045 4.736 340.725 6.568 340.725 10.232L340.557 12.104H333.117C333.133 13.096 333.349 13.824 333.765 14.288C334.181 14.752 334.957 14.984 336.093 14.984C337.229 14.984 338.397 14.936 339.597 14.84ZM338.157 10.088C338.157 8.904 337.965 8.08 337.581 7.616C337.213 7.136 336.581 6.896 335.685 6.896C334.789 6.896 334.133 7.144 333.717 7.64C333.317 8.136 333.109 8.952 333.093 10.088H338.157ZM351.568 7.472C349.68 7.216 348.312 7.088 347.464 7.088C346.616 7.088 346.024 7.192 345.688 7.4C345.368 7.592 345.208 7.904 345.208 8.336C345.208 8.768 345.384 9.072 345.736 9.248C346.104 9.424 346.952 9.632 348.28 9.872C349.624 10.096 350.576 10.456 351.136 10.952C351.696 11.448 351.976 12.328 351.976 13.592C351.976 14.856 351.568 15.784 350.752 16.376C349.952 16.968 348.776 17.264 347.224 17.264C346.248 17.264 345.016 17.128 343.528 16.856L342.784 16.736L342.88 14.552C344.8 14.808 346.184 14.936 347.032 14.936C347.88 14.936 348.48 14.832 348.832 14.624C349.2 14.416 349.384 14.072 349.384 13.592C349.384 13.112 349.208 12.784 348.856 12.608C348.52 12.416 347.696 12.216 346.384 12.008C345.088 11.784 344.136 11.44 343.528 10.976C342.92 10.512 342.616 9.664 342.616 8.432C342.616 7.2 343.032 6.28 343.864 5.672C344.712 5.064 345.792 4.76 347.104 4.76C348.128 4.76 349.384 4.888 350.872 5.144L351.616 5.288L351.568 7.472Z"
          fill="#B9B9B9"/>
</svg>
