<svg width="103" height="20" viewBox="0 0 103 20" fill="none" xmlns="http://www.w3.org/2000/svg">
    <path d="M1.86174 15.7314C0.98674 15.6064 0.54924 15.4033 0.54924 15.1221C0.54924 14.9189 0.697678 14.6846 0.994553 14.4189C1.29143 14.1533 1.5883 13.8799 1.88518 13.5986C1.88518 12.6611 1.74455 11.6143 1.4633 10.458C1.18205 9.28613 0.978928 8.37988 0.853928 7.73926C0.728928 7.09863 0.666428 6.5127 0.666428 5.98145C0.666428 5.4502 0.744553 5.11426 0.900803 4.97363C1.07268 4.83301 1.31487 4.7627 1.62737 4.7627C1.93987 4.7627 2.14299 4.80957 2.23674 4.90332C2.33049 4.98145 2.39299 5.08301 2.42424 5.20801C2.45549 5.33301 2.47112 5.46582 2.47112 5.60645C2.48674 5.74707 2.51799 5.87988 2.56487 6.00488C2.64299 6.30176 2.88518 6.4502 3.29143 6.4502C4.3383 6.43457 5.38518 6.34863 6.43205 6.19238C7.47893 6.02051 8.51799 5.84863 9.54924 5.67676C11.6117 5.33301 13.0571 5.16113 13.8852 5.16113C14.7289 5.16113 15.393 5.18457 15.8774 5.23145C15.893 5.52832 15.9242 5.78613 15.9711 6.00488C16.018 6.22363 16.0414 6.40332 16.0414 6.54395C16.0414 6.80957 15.7836 6.90332 15.268 6.8252C7.09612 7.12207 3.01018 7.73145 3.01018 8.65332C3.01018 9.66895 3.08049 10.5439 3.22112 11.2783C3.36174 11.9971 3.4633 12.4502 3.5258 12.6377C3.60393 12.8252 3.68987 12.9189 3.78362 12.9189C4.67424 12.9189 5.57268 12.8408 6.47893 12.6846C7.4008 12.5283 8.31487 12.3643 9.22112 12.1924C10.143 12.0049 11.0649 11.833 11.9867 11.6768C12.9086 11.5205 13.8149 11.4424 14.7055 11.4424C14.7211 11.4424 14.7289 11.5049 14.7289 11.6299C14.7289 11.7393 14.7211 11.8643 14.7055 12.0049C14.6586 12.3799 14.6586 12.5674 14.7055 12.5674C14.0336 12.9424 12.8149 13.2471 11.0492 13.4814C10.2836 13.5908 9.50237 13.6924 8.70549 13.7861C7.90862 13.8799 7.17424 13.9814 6.50237 14.0908C4.95549 14.3096 4.05705 14.5986 3.80705 14.958L3.54924 19.5518C3.37737 19.7236 3.18205 19.8096 2.9633 19.8096L2.09612 19.7393C2.01799 19.7393 1.93987 19.7393 1.86174 19.7393L1.86174 15.7314ZM16.7914 16.5049C16.7914 16.2549 16.768 15.9111 16.7211 15.4736C16.6899 15.0205 16.6586 14.5283 16.6274 13.9971C16.5961 13.4658 16.5805 12.9268 16.5805 12.3799C16.5805 11.833 16.6274 11.333 16.7211 10.8799C16.9242 9.86426 17.3461 9.35645 17.9867 9.35645C18.4242 9.48145 18.7133 9.6377 18.8539 9.8252C19.0102 10.0127 19.0883 10.2471 19.0883 10.5283C19.0883 10.7939 19.018 11.1299 18.8774 11.5361C18.3617 12.8955 18.1039 14.1221 18.1039 15.2158C18.1039 15.5752 18.1274 15.958 18.1742 16.3643C18.4242 17.4111 19.2836 17.9346 20.7524 17.9346C21.518 17.9346 22.2446 17.8018 22.9321 17.5361C24.2446 17.0518 25.1352 16.4814 25.6039 15.8252C25.7446 15.1064 25.8149 14.4814 25.8149 13.9502C25.8149 13.4033 25.7914 12.9189 25.7446 12.4971C25.7133 12.0752 25.6664 11.6143 25.6039 11.1143C25.5571 10.5986 25.5258 10.0361 25.5102 9.42676C25.7133 9.33301 25.9086 9.28613 26.0961 9.28613C26.2992 9.28613 26.5024 9.3877 26.7055 9.59082C26.9242 9.79395 27.1039 10.1768 27.2446 10.7393C27.4008 11.3018 27.5024 11.9658 27.5492 12.7314C27.5961 13.4814 27.6196 14.2627 27.6196 15.0752C27.6352 15.8877 27.643 16.6768 27.643 17.4424C27.643 18.1924 27.6742 18.8408 27.7367 19.3877C27.5492 19.5596 27.3696 19.6455 27.1977 19.6455C26.5727 19.6455 26.1117 19.0205 25.8149 17.7705C25.6117 17.9424 25.268 18.1533 24.7836 18.4033C23.7524 18.9658 22.5336 19.3408 21.1274 19.5283C20.8617 19.5596 20.5649 19.5752 20.2367 19.5752C19.9086 19.5752 19.4946 19.5127 18.9946 19.3877C18.5102 19.2627 18.0492 18.9736 17.6117 18.5205C17.1742 18.0674 16.9008 17.3955 16.7914 16.5049ZM38.5649 17.1611C39.2055 16.8955 39.8305 16.6533 40.4399 16.4346C41.0492 16.2158 41.6274 16.1064 42.1742 16.1064C42.7367 16.1064 43.018 16.2783 43.018 16.6221C43.018 16.7002 42.9946 16.8252 42.9477 16.9971C42.9164 17.1533 42.7055 17.3486 42.3149 17.583C41.9399 17.8018 41.4711 18.0127 40.9086 18.2158C40.3617 18.4189 39.7602 18.6064 39.1039 18.7783C38.4477 18.9502 37.8071 19.0986 37.1821 19.2236C35.8852 19.4893 34.9633 19.6221 34.4164 19.6221C33.8696 19.6221 33.2758 19.5596 32.6352 19.4346C32.0102 19.3096 31.4242 19.1064 30.8774 18.8252C29.6117 18.1689 28.9789 17.2002 28.9789 15.9189C28.9789 15.8252 28.9789 15.6377 28.9789 15.3564C28.9789 15.0752 29.0961 14.6768 29.3305 14.1611C29.5649 13.6299 29.9164 13.1064 30.3852 12.5908C30.8539 12.0596 31.4008 11.5752 32.0258 11.1377C33.3383 10.2002 34.7133 9.59082 36.1508 9.30957C36.6508 9.2002 37.0649 9.14551 37.393 9.14551C37.7367 9.14551 38.018 9.15332 38.2367 9.16895C38.4555 9.16895 38.6821 9.18457 38.9164 9.21582C39.1508 9.23145 39.3539 9.28613 39.5258 9.37988C39.9321 9.58301 40.1352 9.98145 40.1352 10.5752C40.1352 10.9502 39.8696 11.3174 39.3383 11.6768C39.1977 11.7705 39.0727 11.8564 38.9633 11.9346C38.8852 11.5752 38.7836 11.2705 38.6586 11.0205C38.5336 10.7705 38.2602 10.6455 37.8383 10.6455C35.9946 11.0361 34.4086 11.6221 33.0805 12.4033C31.5805 13.2939 30.8305 14.2314 30.8305 15.2158C30.8305 15.3252 30.8383 15.4424 30.8539 15.5674C30.8539 16.5674 31.2367 17.2783 32.0024 17.7002C32.5805 18.0127 33.3227 18.1689 34.2289 18.1689C35.1508 18.1689 35.9477 18.0674 36.6196 17.8643C37.2914 17.6455 37.9399 17.4111 38.5649 17.1611ZM46.6039 15.3564L46.7211 17.3955C46.7211 18.6455 46.4242 19.4033 45.8305 19.6689C45.7055 19.7158 45.5571 19.7393 45.3852 19.7393C45.2133 19.7393 45.0102 19.7002 44.7758 19.6221L44.7992 10.8564C44.7992 9.59082 44.7211 8.3252 44.5649 7.05957C44.4242 5.77832 44.3539 4.50488 44.3539 3.23926C44.3539 2.73926 44.6196 2.48926 45.1508 2.48926L45.3383 2.48926C45.4477 2.48926 45.518 2.49707 45.5492 2.5127C45.7836 3.48145 45.9399 4.65332 46.018 6.02832C46.1899 9.0752 46.3461 11.1221 46.4867 12.1689C46.7524 12.0283 47.3461 11.6299 48.268 10.9736C49.1899 10.3174 49.9321 9.79395 50.4946 9.40332C51.0571 8.99707 51.5883 8.62207 52.0883 8.27832C53.2602 7.5127 53.9946 7.12988 54.2914 7.12988C54.5414 7.12988 54.7367 7.27832 54.8774 7.5752C54.0961 8.55957 52.8383 9.65332 51.1039 10.8564C50.4008 11.3408 49.6977 11.8252 48.9946 12.3096C48.3071 12.7783 47.6742 13.2705 47.0961 13.7861C48.143 14.0674 49.1352 14.3643 50.0727 14.6768C51.0102 14.9736 51.9164 15.2471 52.7914 15.4971C54.8071 16.0908 56.5414 16.4268 57.9946 16.5049C57.9946 16.9268 57.9555 17.2002 57.8774 17.3252C57.7367 17.5439 57.4477 17.6689 57.0102 17.7002H56.8227C55.8696 17.4346 54.6039 17.1377 53.0258 16.8096C49.9164 16.1689 47.7758 15.6846 46.6039 15.3564ZM59.4711 15.6846C59.0961 14.8408 58.9086 13.8486 58.9086 12.708C58.9086 11.5674 59.0883 10.5596 59.4477 9.68457C59.8227 8.79395 60.3305 8.02832 60.9711 7.3877C62.3305 6.05957 64.0336 5.39551 66.0805 5.39551C68.2211 5.39551 69.9867 5.8877 71.3774 6.87207C72.9399 7.99707 73.7211 9.60645 73.7211 11.7002C73.7211 14.2939 73.1196 16.208 71.9164 17.4424C70.7289 18.6768 68.8696 19.2939 66.3383 19.2939C62.8227 19.2939 60.5336 18.0908 59.4711 15.6846ZM60.8305 12.2393C60.8305 15.9268 62.6899 17.7705 66.4086 17.7705C68.2367 17.7705 69.7211 17.2236 70.8617 16.1299C72.0024 15.0518 72.5727 13.6377 72.5727 11.8877C72.5727 10.2471 71.893 8.99707 70.5336 8.1377C69.3774 7.3877 67.9164 7.0127 66.1508 7.0127C64.7446 7.0127 63.5024 7.52051 62.4242 8.53613C61.3617 9.55176 60.8305 10.7861 60.8305 12.2393ZM88.5571 11.7939C88.6352 11.7939 88.6742 12.0049 88.6742 12.4268C88.6742 12.8486 88.6899 13.1377 88.7211 13.2939L80.6821 14.2783L81.1039 19.4814L79.2055 19.3877C79.2055 17.9814 79.0492 16.3721 78.7367 14.5596L75.6899 15.7314C75.4867 15.7314 75.3149 15.6143 75.1742 15.3799C74.9242 14.9736 74.7992 14.6064 74.7992 14.2783L78.3617 13.0127C78.0492 10.3252 77.893 8.14551 77.893 6.47363C77.893 4.78613 78.0336 3.47363 78.3149 2.53613C78.5961 1.59863 79.0024 0.973633 79.5336 0.661133C80.0805 0.333008 80.6586 0.168945 81.268 0.168945C81.8774 0.168945 82.4946 0.301758 83.1196 0.567383C83.7602 0.833008 84.3696 1.16895 84.9477 1.5752C85.5258 1.98145 86.018 2.44238 86.4242 2.95801C86.8305 3.45801 87.0336 3.9502 87.0336 4.43457C87.0336 4.80957 86.9946 5.0752 86.9164 5.23145C86.2914 4.35645 85.5336 3.5752 84.643 2.8877C83.5805 2.0752 82.5805 1.66895 81.643 1.66895C80.7524 1.66895 80.1586 2.30176 79.8617 3.56738C79.7211 4.22363 79.6508 5.15332 79.6508 6.35645C79.6508 7.54395 79.6821 8.6377 79.7446 9.6377C79.8071 10.6221 79.9946 11.6143 80.3071 12.6143C81.2758 12.6143 82.3617 12.5283 83.5649 12.3564C85.8774 11.9971 87.5414 11.8096 88.5571 11.7939ZM102.807 11.7939C102.885 11.7939 102.924 12.0049 102.924 12.4268C102.924 12.8486 102.94 13.1377 102.971 13.2939L94.9321 14.2783L95.3539 19.4814L93.4555 19.3877C93.4555 17.9814 93.2992 16.3721 92.9867 14.5596L89.9399 15.7314C89.7367 15.7314 89.5649 15.6143 89.4242 15.3799C89.1742 14.9736 89.0492 14.6064 89.0492 14.2783L92.6117 13.0127C92.2992 10.3252 92.143 8.14551 92.143 6.47363C92.143 4.78613 92.2836 3.47363 92.5649 2.53613C92.8461 1.59863 93.2524 0.973633 93.7836 0.661133C94.3305 0.333008 94.9086 0.168945 95.518 0.168945C96.1274 0.168945 96.7446 0.301758 97.3696 0.567383C98.0102 0.833008 98.6196 1.16895 99.1977 1.5752C99.7758 1.98145 100.268 2.44238 100.674 2.95801C101.08 3.45801 101.284 3.9502 101.284 4.43457C101.284 4.80957 101.245 5.0752 101.166 5.23145C100.541 4.35645 99.7836 3.5752 98.893 2.8877C97.8305 2.0752 96.8305 1.66895 95.893 1.66895C95.0024 1.66895 94.4086 2.30176 94.1117 3.56738C93.9711 4.22363 93.9008 5.15332 93.9008 6.35645C93.9008 7.54395 93.9321 8.6377 93.9946 9.6377C94.0571 10.6221 94.2446 11.6143 94.5571 12.6143C95.5258 12.6143 96.6117 12.5283 97.8149 12.3564C100.127 11.9971 101.791 11.8096 102.807 11.7939Z"
          fill="#E1FF28"/>
</svg>
