<svg width="1333" height="381" viewBox="0 0 1333 381" fill="none" xmlns="http://www.w3.org/2000/svg">
    <path d="M147.927 2.77489V51.5037H44.7011V2.77489H0.944653V142H44.7011V90.2878H147.927V142H191.683V2.77489H147.927Z"
          fill="white" fill-opacity="0.2"/>
    <path d="M341.077 0.388184H287.773C243.221 0.388184 211.398 29.4266 211.398 72.3875C211.398 115.547 244.216 144.387 287.773 144.387H341.077C385.629 144.387 417.452 115.547 417.452 72.3875C417.452 29.4266 385.629 0.388184 341.077 0.388184ZM341.077 103.614H287.773C268.878 103.614 255.95 90.2878 255.95 72.3875C255.95 54.686 268.878 41.1613 287.773 41.1613H341.077C359.971 41.1613 372.9 54.686 372.9 72.3875C372.9 90.2878 359.971 103.614 341.077 103.614Z"
          fill="white" fill-opacity="0.2"/>
    <path d="M477.06 103.614V2.77489H433.304V142H595.601V103.614H477.06Z" fill="white" fill-opacity="0.2"/>
    <path d="M729.857 2.77489H615.493V142H729.857C773.414 142 806.43 115.348 806.43 72.3875C806.43 29.2277 773.414 2.77489 729.857 2.77489ZM729.857 103.813H659.051V40.9624H729.857C748.354 40.9624 761.878 54.4871 761.878 72.3875C761.878 90.089 748.354 103.415 729.857 103.813Z"
          fill="white" fill-opacity="0.2"/>
    <path d="M1045.73 2.77489L984.673 57.2716L922.021 2.77489H879.259V142H922.021V61.2495L984.673 115.547L1045.73 61.8461V142H1088.49V2.77489H1045.73Z"
          fill="white" fill-opacity="0.2"/>
    <path d="M1251.46 2.77489L1204.32 49.3159L1157.18 2.77489H1100.5L1182.44 85.9122V142H1226.2V86.1111L1308.54 2.77489H1251.46Z"
          fill="white" fill-opacity="0.2"/>
    <path d="M570.587 241.775H456.223V381H570.587C614.144 381 647.161 354.348 647.161 311.387C647.161 268.228 614.144 241.775 570.587 241.775ZM570.587 342.813H499.781V279.962H570.587C589.084 279.962 602.609 293.487 602.609 311.387C602.609 329.089 589.084 342.415 570.587 342.813Z"
          fill="white" fill-opacity="0.2"/>
    <path d="M663.08 381H707.035V349.177H778.239L797.134 381H847.851L822.393 342.017C840.294 332.868 851.034 315.365 851.034 295.476C851.034 265.841 827.564 241.775 791.962 241.775H663.08V381ZM707.035 310.791V280.161H791.962C800.316 280.161 807.277 286.924 807.277 295.476C807.277 304.028 800.316 310.791 791.962 310.791H707.035Z"
          fill="white" fill-opacity="0.2"/>
    <path d="M868.577 381H912.333V241.775H868.577V381Z" fill="white" fill-opacity="0.2"/>
    <path d="M1082.25 241.775V323.719L975.246 241.775H932.285V381H975.246V298.459L1082.25 381H1125.21V241.775H1082.25Z"
          fill="white" fill-opacity="0.2"/>
    <path d="M1332.12 241.775H1284.79L1261.71 291.1H1189.12V241.775H1145.16V381H1189.12V329.288H1260.52L1284.79 381H1332.12L1299.11 311.387L1332.12 241.775Z"
          fill="white" fill-opacity="0.2"/>
</svg>
