<svg width="300" height="300" viewBox="0 0 32 32" fill="none" xmlns="http://www.w3.org/2000/svg">
<rect width="100%" height="100%" fill="black"/>
<path fill-rule="evenodd" clip-rule="evenodd" d="M16 29.8667C23.6584 29.8667 29.8667 23.6584 29.8667 16C29.8667 8.34165 23.6584 2.13333 16 2.13333C8.34165 2.13333 2.13333 8.34165 2.13333 16C2.13333 23.6584 8.34165 29.8667 16 29.8667ZM16 32C24.8366 32 32 24.8366 32 16C32 7.16344 24.8366 0 16 0C7.16344 0 0 7.16344 0 16C0 24.8366 7.16344 32 16 32Z" fill="#E1FF28"/>
<path d="M20.3207 18.5756H18.4194C18.3778 18.5756 18.344 18.5419 18.344 18.5002V15.8842C18.344 15.8426 18.3778 15.8088 18.4194 15.8088H24.6905C24.7321 15.8088 24.7659 15.8426 24.7659 15.8842V18.5002C24.7659 18.5419 24.7321 18.5756 24.6905 18.5756H23.2262C22.2187 21.514 19.432 23.6262 16.152 23.6262C12.0228 23.6262 8.67535 20.2788 8.67535 16.1495C8.67535 12.0203 12.0228 8.6729 16.152 8.6729C19.2467 8.6729 21.9023 10.5532 23.0387 13.2337C23.0684 13.3036 23.0165 13.3805 22.9405 13.3805L20.2167 13.3805C20.0805 13.3805 19.9533 13.315 19.8673 13.2093C18.99 12.1297 17.6515 11.4399 16.1519 11.4399C13.5092 11.4399 11.3669 13.5822 11.3669 16.2249C11.3669 18.8676 13.5092 21.01 16.1519 21.01C17.9403 21.01 19.4995 20.0289 20.3207 18.5756Z" fill="#E1FF28"/>
</svg>
