<svg width="566" height="258" viewBox="0 0 566 258" fill="none" xmlns="http://www.w3.org/2000/svg">
    <path d="M60.24 9.99999L45.28 28.4L30.32 9.99999H8.8L36.48 44.16V66H54.08V44.32L81.76 9.99999H60.24Z"
          fill="#F22FB0"/>
    <path d="M119.264 9.03999H108.464C90.5437 9.03999 77.7438 20.72 77.7438 38C77.7438 55.36 90.9437 66.96 108.464 66.96H119.264C137.184 66.96 149.984 55.36 149.984 38C149.984 20.72 137.184 9.03999 119.264 9.03999ZM119.264 50.56H108.464C100.864 50.56 95.6637 45.28 95.6637 38C95.6637 30.8 100.864 25.44 108.464 25.44H119.264C126.864 25.44 132.064 30.8 132.064 38C132.064 45.28 126.864 50.56 119.264 50.56Z"
          fill="#F22FB0"/>
    <path d="M183.975 66.96H194.775C211.895 66.96 222.375 57.84 222.375 40.48V9.99999H204.775V39.04C204.775 44.96 202.215 50.16 194.775 50.16H183.975C176.615 50.16 173.975 44.96 173.975 39.04V9.99999H156.375V40.48C156.375 57.84 166.855 66.96 183.975 66.96Z"
          fill="#F22FB0"/>
    <path d="M94.96 106L83.12 142L68.8 106H52.16L39.28 141.28L27.6 106H8.8L28.24 162H48.8L61.28 129.2L73.84 162H94.32L113.84 106H94.96Z"
          fill="#F22FB0"/>
    <path d="M156.139 105.04H145.339C127.419 105.04 114.619 116.72 114.619 134C114.619 151.36 127.819 162.96 145.339 162.96H156.139C174.059 162.96 186.859 151.36 186.859 134C186.859 116.72 174.059 105.04 156.139 105.04ZM156.139 146.56H145.339C137.739 146.56 132.539 141.28 132.539 134C132.539 126.8 137.739 121.44 145.339 121.44H156.139C163.739 121.44 168.939 126.8 168.939 134C168.939 141.28 163.739 146.56 156.139 146.56Z"
          fill="#F22FB0"/>
    <path d="M220.85 162.96H231.65C248.77 162.96 259.25 153.84 259.25 136.48V106H241.65V135.04C241.65 140.96 239.09 146.16 231.65 146.16H220.85C213.49 146.16 210.85 140.96 210.85 135.04V106H193.25V136.48C193.25 153.84 203.73 162.96 220.85 162.96Z"
          fill="#F22FB0"/>
    <path d="M284.834 146.56V106H267.234V162H321.794V146.56H284.834Z" fill="#F22FB0"/>
    <path d="M365.093 106H329.813V162H365.093C382.613 162 395.893 151.28 395.893 134C395.893 116.64 382.613 106 365.093 106ZM365.093 146.64H347.333V121.36H365.093C372.533 121.36 377.973 126.8 377.973 134C377.973 141.12 372.533 146.48 365.093 146.64Z"
          fill="#F22FB0"/>
    <path d="M451.913 106V136.88L419.593 106H402.313V162H419.593V130.72L451.913 162H469.193V106H451.913Z"
          fill="#F22FB0"/>
    <path d="M479.556 130.56H489.956L492.356 119.36V106H477.156V119.36L479.556 130.56Z" fill="#F22FB0"/>
    <path d="M565.879 106H500.359V121.44H524.359V162H541.959V121.44H565.879V106Z" fill="#F22FB0"/>
    <path d="M47.28 202H12V258H47.28C64.8 258 78.08 247.28 78.08 230C78.08 212.64 64.8 202 47.28 202ZM47.28 242.64H29.52V217.36H47.28C54.72 217.36 60.16 222.8 60.16 230C60.16 237.12 54.72 242.48 47.28 242.64Z"
          fill="#F22FB0"/>
    <path d="M132.497 258H150.337L135.537 202H92.8969L78.0969 258H95.8569L98.1769 249.12H130.177L132.497 258ZM102.177 233.52L106.337 217.44H121.937L126.097 233.52H102.177Z"
          fill="#F22FB0"/>
    <path d="M155.125 258H172.805V245.2H192.165L199.765 258H220.165L209.445 241.84C216.085 238 220.005 231.28 220.005 223.6C220.005 211.68 210.565 202 196.245 202H155.125V258ZM172.805 229.76V217.44H196.245C199.605 217.44 202.405 220.16 202.405 223.6C202.405 227.04 199.605 229.76 196.245 229.76H172.805Z"
          fill="#F22FB0"/>
    <path d="M283.318 217.2V202H227.078V258H283.318V242.72H244.678V237.36H277.878V222.8H244.678V217.2H283.318Z"
          fill="#F22FB0"/>
    <path d="M52.24 0.99999L37.28 19.4L22.32 0.99999H0.800003L28.48 35.16V57H46.08V35.32L73.76 0.99999H52.24Z"
          fill="white"/>
    <path d="M111.264 0.0399933H100.464C82.5437 0.0399933 69.7438 11.72 69.7438 29C69.7438 46.36 82.9437 57.96 100.464 57.96H111.264C129.184 57.96 141.984 46.36 141.984 29C141.984 11.72 129.184 0.0399933 111.264 0.0399933ZM111.264 41.56H100.464C92.8638 41.56 87.6637 36.28 87.6637 29C87.6637 21.8 92.8638 16.44 100.464 16.44H111.264C118.864 16.44 124.064 21.8 124.064 29C124.064 36.28 118.864 41.56 111.264 41.56Z"
          fill="white"/>
    <path d="M175.975 57.96H186.775C203.895 57.96 214.375 48.84 214.375 31.48V0.99999H196.775V30.04C196.775 35.96 194.215 41.16 186.775 41.16H175.975C168.615 41.16 165.975 35.96 165.975 30.04V0.99999H148.375V31.48C148.375 48.84 158.855 57.96 175.975 57.96Z"
          fill="white"/>
    <path d="M86.96 97L75.12 133L60.8 97H44.16L31.28 132.28L19.6 97H0.800003L20.24 153H40.8L53.28 120.2L65.84 153H86.32L105.84 97H86.96Z"
          fill="white"/>
    <path d="M148.139 96.04H137.339C119.419 96.04 106.619 107.72 106.619 125C106.619 142.36 119.819 153.96 137.339 153.96H148.139C166.059 153.96 178.859 142.36 178.859 125C178.859 107.72 166.059 96.04 148.139 96.04ZM148.139 137.56H137.339C129.739 137.56 124.539 132.28 124.539 125C124.539 117.8 129.739 112.44 137.339 112.44H148.139C155.739 112.44 160.939 117.8 160.939 125C160.939 132.28 155.739 137.56 148.139 137.56Z"
          fill="white"/>
    <path d="M212.85 153.96H223.65C240.77 153.96 251.25 144.84 251.25 127.48V97H233.65V126.04C233.65 131.96 231.09 137.16 223.65 137.16H212.85C205.49 137.16 202.85 131.96 202.85 126.04V97H185.25V127.48C185.25 144.84 195.73 153.96 212.85 153.96Z"
          fill="white"/>
    <path d="M276.834 137.56V97H259.234V153H313.794V137.56H276.834Z" fill="white"/>
    <path d="M357.093 97H321.813V153H357.093C374.613 153 387.893 142.28 387.893 125C387.893 107.64 374.613 97 357.093 97ZM357.093 137.64H339.333V112.36H357.093C364.533 112.36 369.973 117.8 369.973 125C369.973 132.12 364.533 137.48 357.093 137.64Z"
          fill="white"/>
    <path d="M443.913 97V127.88L411.593 97H394.313V153H411.593V121.72L443.913 153H461.193V97H443.913Z" fill="white"/>
    <path d="M471.556 121.56H481.956L484.356 110.36V97H469.156V110.36L471.556 121.56Z" fill="white"/>
    <path d="M557.879 97H492.359V112.44H516.359V153H533.959V112.44H557.879V97Z" fill="white"/>
    <path d="M39.28 193H4V249H39.28C56.8 249 70.08 238.28 70.08 221C70.08 203.64 56.8 193 39.28 193ZM39.28 233.64H21.52V208.36H39.28C46.72 208.36 52.16 213.8 52.16 221C52.16 228.12 46.72 233.48 39.28 233.64Z"
          fill="white"/>
    <path d="M124.497 249H142.337L127.537 193H84.8969L70.0969 249H87.8569L90.1769 240.12H122.177L124.497 249ZM94.1769 224.52L98.3369 208.44H113.937L118.097 224.52H94.1769Z"
          fill="white"/>
    <path d="M147.125 249H164.805V236.2H184.165L191.765 249H212.165L201.445 232.84C208.085 229 212.005 222.28 212.005 214.6C212.005 202.68 202.565 193 188.245 193H147.125V249ZM164.805 220.76V208.44H188.245C191.605 208.44 194.405 211.16 194.405 214.6C194.405 218.04 191.605 220.76 188.245 220.76H164.805Z"
          fill="white"/>
    <path d="M275.318 208.2V193H219.078V249H275.318V233.72H236.678V228.36H269.878V213.8H236.678V208.2H275.318Z"
          fill="white"/>
</svg>
