<svg fill="none"
     height="52"
     viewBox="0 0 181 52"
     width="181"
     xmlns="http://www.w3.org/2000/svg">
    <rect fill="#F22FB0" height="47" width="176" x="5" y="5"/>
    <rect fill="#E1FF28" height="45" stroke="black" stroke-width="2" width="174" x="1" y="1"/>
    <path d="M75.184 25.832H73.392V29H71.184V18.12H75.184C77.7653 18.12 79.056 19.3787 79.056 21.896C79.056 23.1653 78.7253 24.1413 78.064 24.824C77.4133 25.496 76.4533 25.832 75.184 25.832ZM73.392 23.944H75.168C76.2667 23.944 76.816 23.2613 76.816 21.896C76.816 21.224 76.6827 20.744 76.416 20.456C76.1493 20.1573 75.7333 20.008 75.168 20.008H73.392V23.944ZM87.2779 29H81.0859V18.12H83.2939V27.048H87.2779V29ZM88.2007 29L90.6487 18.12H94.8407L97.2887 29H95.0807L94.6487 27.032H90.8407L90.4087 29H88.2007ZM92.3607 19.944L91.2567 25.112H94.2327L93.1287 19.944H92.3607ZM102.758 29H100.55V24.6L97.19 18.12H99.638L101.638 22.456L103.638 18.12H106.086L102.758 24.6V29Z"
          fill="#1C1C1C"/>
</svg>