<svg fill="none" height="72" viewBox="0 0 264 72" width="264" xmlns="http://www.w3.org/2000/svg">
    <path d="M0.208 1.776V0.879999H8.208V1.776H4.72V12H3.728V1.776H0.208ZM8.219 7.984C8.219 6.48 8.46967 5.41333 8.971 4.784C9.483 4.15467 10.347 3.84 11.563 3.84C12.7897 3.84 13.6537 4.15467 14.155 4.784C14.667 5.41333 14.923 6.48 14.923 7.984C14.923 9.488 14.6883 10.56 14.219 11.2C13.7603 11.84 12.8803 12.16 11.579 12.16C10.2777 12.16 9.39233 11.84 8.923 11.2C8.45367 10.56 8.219 9.488 8.219 7.984ZM9.211 7.968C9.211 9.22667 9.355 10.1013 9.643 10.592C9.94167 11.072 10.5817 11.312 11.563 11.312C12.555 11.312 13.2003 11.0667 13.499 10.576C13.7977 10.0853 13.947 9.216 13.947 7.968C13.947 6.70933 13.7763 5.85067 13.435 5.392C13.1043 4.92267 12.4857 4.688 11.579 4.688C10.6723 4.688 10.0483 4.91733 9.707 5.376C9.37633 5.83467 9.211 6.69867 9.211 7.968ZM21.4681 15.6V4H22.4121V4.608C23.2441 4.096 24.1188 3.84 25.0361 3.84C25.9641 3.84 26.6521 4.16533 27.1001 4.816C27.5588 5.46667 27.7881 6.528 27.7881 8C27.7881 9.46133 27.5215 10.5227 26.9881 11.184C26.4548 11.8347 25.5695 12.16 24.3321 12.16C23.6708 12.16 23.0308 12.0907 22.4121 11.952V15.6H21.4681ZM24.8441 4.704C24.4921 4.704 24.1135 4.76267 23.7081 4.88C23.3028 4.99733 22.9881 5.12 22.7641 5.248L22.4121 5.424V11.12C23.1375 11.248 23.7668 11.312 24.3001 11.312C25.2175 11.312 25.8628 11.056 26.2361 10.544C26.6095 10.0213 26.7961 9.168 26.7961 7.984C26.7961 6.78933 26.6308 5.94667 26.3001 5.456C25.9801 4.95467 25.4948 4.704 24.8441 4.704ZM30.4191 12V0.447999H31.3631V12H30.4191ZM39.8384 6.384V10.672C39.881 11.0667 40.2277 11.3013 40.8784 11.376L40.8304 12.144C40.009 12.144 39.4064 11.9307 39.0224 11.504C38.0197 11.9413 37.017 12.16 36.0144 12.16C35.2997 12.16 34.7557 11.9573 34.3824 11.552C34.009 11.136 33.8224 10.5493 33.8224 9.792C33.8224 9.024 34.009 8.45867 34.3824 8.096C34.7664 7.72267 35.3637 7.49333 36.1744 7.408L38.8944 7.136V6.384C38.8944 5.78667 38.761 5.36 38.4944 5.104C38.2384 4.83733 37.8917 4.704 37.4544 4.704C36.7717 4.704 35.8864 4.768 34.7984 4.896L34.3024 4.944L34.2544 4.176C35.4277 3.952 36.4517 3.84 37.3264 3.84C38.2117 3.84 38.8517 4.048 39.2464 4.464C39.641 4.88 39.8384 5.52 39.8384 6.384ZM34.8144 9.728C34.8144 10.8053 35.257 11.344 36.1424 11.344C36.5264 11.344 36.9477 11.3013 37.4064 11.216C37.865 11.12 38.2277 11.024 38.4944 10.928L38.8944 10.784V7.888L36.2864 8.16C35.7637 8.20267 35.385 8.352 35.1504 8.608C34.9264 8.864 34.8144 9.23733 34.8144 9.728ZM41.9526 4H42.9286L45.0566 11.168H45.6326L47.7766 4H48.7526L45.2966 15.6H44.3366L45.4086 12H44.3046L41.9526 4ZM53.8449 1.776V0.879999H61.8449V1.776H58.3569V12H57.3649V1.776H53.8449ZM64.6827 12H63.7387V0.447999H64.6827V4.464C65.5787 4.048 66.4427 3.84 67.2747 3.84C68.3414 3.84 69.0508 4.12267 69.4028 4.688C69.7654 5.25333 69.9468 6.288 69.9468 7.792V12H68.9868V7.84C68.9868 6.61333 68.8694 5.78667 68.6347 5.36C68.4107 4.92267 67.9147 4.704 67.1467 4.704C66.7734 4.704 66.3788 4.752 65.9627 4.848C65.5574 4.93333 65.2427 5.024 65.0187 5.12L64.6827 5.248V12ZM78.046 11.2L78.526 11.152L78.558 11.936C77.3527 12.0853 76.334 12.16 75.502 12.16C74.35 12.1493 73.5447 11.808 73.086 11.136C72.6273 10.464 72.398 9.42933 72.398 8.032C72.398 5.23733 73.4967 3.84 75.694 3.84C76.75 3.84 77.5393 4.144 78.062 4.752C78.5847 5.34933 78.846 6.30933 78.846 7.632L78.814 8.4H73.374C73.374 9.38133 73.5393 10.112 73.87 10.592C74.2113 11.0613 74.7873 11.296 75.598 11.296C76.4193 11.296 77.2353 11.264 78.046 11.2ZM73.374 7.6H77.886C77.886 6.544 77.71 5.792 77.358 5.344C77.0167 4.896 76.462 4.672 75.694 4.672C74.9367 4.672 74.3607 4.90667 73.966 5.376C73.5713 5.83467 73.374 6.576 73.374 7.6ZM92.1201 11.824C91.0215 12.048 90.0828 12.16 89.3041 12.16C88.5255 12.16 87.8961 12.08 87.4161 11.92C86.9468 11.7493 86.5628 11.5147 86.2641 11.216C85.9655 10.9173 85.7308 10.528 85.5601 10.048C85.2401 9.17333 85.0801 7.984 85.0801 6.48C85.0801 4.06933 85.4641 2.47467 86.2321 1.696C86.8615 1.04533 87.8215 0.719999 89.1121 0.719999C89.9975 0.719999 91.0001 0.831999 92.1201 1.056L92.0721 1.92C90.9628 1.71733 90.0721 1.616 89.4001 1.616C88.7281 1.616 88.2055 1.69067 87.8321 1.84C87.4695 1.97867 87.1708 2.17067 86.9361 2.416C86.7121 2.65067 86.5415 2.98133 86.4241 3.408C86.2108 4.13333 86.1041 5.04 86.1041 6.128C86.1041 7.216 86.1415 8.032 86.2161 8.576C86.2908 9.10933 86.4348 9.59467 86.6481 10.032C86.8615 10.4693 87.1761 10.784 87.5921 10.976C88.0081 11.168 88.5841 11.264 89.3201 11.264C90.0561 11.264 90.9735 11.1627 92.0721 10.96L92.1201 11.824ZM95.4152 12H94.4712V0.447999H95.4152V4.464C96.3112 4.048 97.1752 3.84 98.0072 3.84C99.0739 3.84 99.7832 4.12267 100.135 4.688C100.498 5.25333 100.679 6.288 100.679 7.792V12H99.7192V7.84C99.7192 6.61333 99.6019 5.78667 99.3672 5.36C99.1432 4.92267 98.6472 4.704 97.8792 4.704C97.5059 4.704 97.1112 4.752 96.6952 4.848C96.2899 4.93333 95.9752 5.024 95.7512 5.12L95.4152 5.248V12ZM108.987 6.384V10.672C109.029 11.0667 109.376 11.3013 110.027 11.376L109.979 12.144C109.157 12.144 108.555 11.9307 108.171 11.504C107.168 11.9413 106.165 12.16 105.163 12.16C104.448 12.16 103.904 11.9573 103.531 11.552C103.157 11.136 102.971 10.5493 102.971 9.792C102.971 9.024 103.157 8.45867 103.531 8.096C103.915 7.72267 104.512 7.49333 105.323 7.408L108.043 7.136V6.384C108.043 5.78667 107.909 5.36 107.643 5.104C107.387 4.83733 107.04 4.704 106.603 4.704C105.92 4.704 105.035 4.768 103.947 4.896L103.451 4.944L103.403 4.176C104.576 3.952 105.6 3.84 106.475 3.84C107.36 3.84 108 4.048 108.395 4.464C108.789 4.88 108.987 5.52 108.987 6.384ZM103.963 9.728C103.963 10.8053 104.405 11.344 105.291 11.344C105.675 11.344 106.096 11.3013 106.555 11.216C107.013 11.12 107.376 11.024 107.643 10.928L108.043 10.784V7.888L105.435 8.16C104.912 8.20267 104.533 8.352 104.299 8.608C104.075 8.864 103.963 9.23733 103.963 9.728ZM112.043 12V0.447999H112.987V12H112.043ZM116.054 12V0.447999H116.998V12H116.054ZM125.265 11.2L125.745 11.152L125.777 11.936C124.572 12.0853 123.553 12.16 122.721 12.16C121.569 12.1493 120.764 11.808 120.305 11.136C119.847 10.464 119.617 9.42933 119.617 8.032C119.617 5.23733 120.716 3.84 122.913 3.84C123.969 3.84 124.759 4.144 125.281 4.752C125.804 5.34933 126.065 6.30933 126.065 7.632L126.033 8.4H120.593C120.593 9.38133 120.759 10.112 121.089 10.592C121.431 11.0613 122.007 11.296 122.817 11.296C123.639 11.296 124.455 11.264 125.265 11.2ZM120.593 7.6H125.105C125.105 6.544 124.929 5.792 124.577 5.344C124.236 4.896 123.681 4.672 122.913 4.672C122.156 4.672 121.58 4.90667 121.185 5.376C120.791 5.83467 120.593 6.576 120.593 7.6ZM129.456 12H128.512V4H129.456V4.592C130.352 4.09067 131.221 3.84 132.064 3.84C133.131 3.84 133.84 4.12267 134.192 4.688C134.555 5.25333 134.736 6.288 134.736 7.792V12H133.776V7.84C133.776 6.61333 133.659 5.78667 133.424 5.36C133.189 4.92267 132.688 4.704 131.92 4.704C131.547 4.704 131.152 4.76267 130.736 4.88C130.331 4.98667 130.016 5.09867 129.792 5.216L129.456 5.376V12ZM144.003 13.216C144.003 14.1227 143.71 14.7787 143.123 15.184C142.547 15.5893 141.646 15.792 140.419 15.792C139.192 15.792 138.344 15.616 137.875 15.264C137.406 14.912 137.171 14.2667 137.171 13.328C137.171 12.88 137.267 12.5173 137.459 12.24C137.651 11.9733 137.987 11.664 138.467 11.312C138.2 11.1413 138.067 10.7787 138.067 10.224C138.067 10.0533 138.195 9.71733 138.451 9.216L138.579 8.976C137.704 8.61333 137.267 7.808 137.267 6.56C137.267 4.74667 138.232 3.84 140.163 3.84C140.707 3.84 141.187 3.89333 141.603 4L141.843 4.048L144.163 4V4.848L142.563 4.816C142.947 5.2 143.139 5.83467 143.139 6.72C143.139 7.59467 142.894 8.23467 142.403 8.64C141.923 9.03467 141.16 9.232 140.115 9.232C139.806 9.232 139.534 9.21067 139.299 9.168C139.086 9.69067 138.979 10.0213 138.979 10.16C138.979 10.512 139.08 10.7307 139.283 10.816C139.496 10.8907 140.12 10.9333 141.155 10.944C142.19 10.944 142.92 11.0987 143.347 11.408C143.784 11.7067 144.003 12.3093 144.003 13.216ZM138.131 13.264C138.131 13.904 138.291 14.3467 138.611 14.592C138.931 14.8373 139.55 14.96 140.467 14.96C141.384 14.96 142.04 14.8267 142.435 14.56C142.83 14.304 143.027 13.8667 143.027 13.248C143.027 12.64 142.883 12.2453 142.595 12.064C142.307 11.8827 141.758 11.792 140.947 11.792L139.139 11.728C138.744 12.0053 138.478 12.2453 138.339 12.448C138.2 12.6613 138.131 12.9333 138.131 13.264ZM138.243 6.56C138.243 7.24267 138.392 7.728 138.691 8.016C138.99 8.29333 139.491 8.432 140.195 8.432C140.91 8.432 141.416 8.29333 141.715 8.016C142.014 7.73867 142.163 7.25333 142.163 6.56C142.163 5.856 142.014 5.36 141.715 5.072C141.416 4.784 140.91 4.64 140.195 4.64C139.491 4.64 138.99 4.78933 138.691 5.088C138.392 5.376 138.243 5.86667 138.243 6.56ZM151.44 11.2L151.92 11.152L151.952 11.936C150.746 12.0853 149.728 12.16 148.896 12.16C147.744 12.1493 146.938 11.808 146.48 11.136C146.021 10.464 145.792 9.42933 145.792 8.032C145.792 5.23733 146.89 3.84 149.088 3.84C150.144 3.84 150.933 4.144 151.456 4.752C151.978 5.34933 152.24 6.30933 152.24 7.632L152.208 8.4H146.768C146.768 9.38133 146.933 10.112 147.264 10.592C147.605 11.0613 148.181 11.296 148.992 11.296C149.813 11.296 150.629 11.264 151.44 11.2ZM146.768 7.6H151.28C151.28 6.544 151.104 5.792 150.752 5.344C150.41 4.896 149.856 4.672 149.088 4.672C148.33 4.672 147.754 4.90667 147.36 5.376C146.965 5.83467 146.768 6.576 146.768 7.6ZM158.874 12V0.879999H160.73L164.17 10.608L167.594 0.879999H169.45V12H168.458V1.904H168.234L164.746 11.632H163.578L160.09 1.904H159.866V12H158.874ZM178.025 6.384V10.672C178.068 11.0667 178.415 11.3013 179.065 11.376L179.017 12.144C178.196 12.144 177.593 11.9307 177.209 11.504C176.207 11.9413 175.204 12.16 174.201 12.16C173.487 12.16 172.943 11.9573 172.569 11.552C172.196 11.136 172.009 10.5493 172.009 9.792C172.009 9.024 172.196 8.45867 172.569 8.096C172.953 7.72267 173.551 7.49333 174.361 7.408L177.081 7.136V6.384C177.081 5.78667 176.948 5.36 176.681 5.104C176.425 4.83733 176.079 4.704 175.641 4.704C174.959 4.704 174.073 4.768 172.985 4.896L172.489 4.944L172.441 4.176C173.615 3.952 174.639 3.84 175.513 3.84C176.399 3.84 177.039 4.048 177.433 4.464C177.828 4.88 178.025 5.52 178.025 6.384ZM173.001 9.728C173.001 10.8053 173.444 11.344 174.329 11.344C174.713 11.344 175.135 11.3013 175.593 11.216C176.052 11.12 176.415 11.024 176.681 10.928L177.081 10.784V7.888L174.473 8.16C173.951 8.20267 173.572 8.352 173.337 8.608C173.113 8.864 173.001 9.23733 173.001 9.728ZM180.986 12V4H181.93V5.152C182.324 4.87467 182.804 4.608 183.37 4.352C183.946 4.096 184.474 3.92533 184.954 3.84V4.8C184.495 4.896 184.015 5.04533 183.514 5.248C183.012 5.44 182.623 5.61067 182.346 5.76L181.93 6V12H180.986ZM187.832 12H186.888V0.447999H187.832V7.328L189.192 7.296L191.656 4H192.76L190.024 7.664L192.888 12H191.768L189.208 8.144L187.832 8.176V12ZM199.96 11.2L200.44 11.152L200.472 11.936C199.267 12.0853 198.248 12.16 197.416 12.16C196.264 12.1493 195.459 11.808 195 11.136C194.542 10.464 194.312 9.42933 194.312 8.032C194.312 5.23733 195.411 3.84 197.608 3.84C198.664 3.84 199.454 4.144 199.976 4.752C200.499 5.34933 200.76 6.30933 200.76 7.632L200.728 8.4H195.288C195.288 9.38133 195.454 10.112 195.784 10.592C196.126 11.0613 196.702 11.296 197.512 11.296C198.334 11.296 199.15 11.264 199.96 11.2ZM195.288 7.6H199.8C199.8 6.544 199.624 5.792 199.272 5.344C198.931 4.896 198.376 4.672 197.608 4.672C196.851 4.672 196.275 4.90667 195.88 5.376C195.486 5.83467 195.288 6.576 195.288 7.6ZM207.192 4.848H204.52V8.8C204.52 9.83467 204.595 10.512 204.744 10.832C204.894 11.152 205.246 11.312 205.8 11.312L207.272 11.2L207.336 12.016C206.632 12.1227 206.094 12.176 205.72 12.176C204.91 12.176 204.344 11.9787 204.024 11.584C203.715 11.1787 203.56 10.4107 203.56 9.28V4.848H202.376V4H203.56V1.488H204.52V4H207.192V4.848ZM217.727 7.264V6.384H220.751V11.76C220.442 11.824 219.898 11.904 219.119 12C218.34 12.1067 217.695 12.16 217.183 12.16C215.583 12.16 214.474 11.6907 213.855 10.752C213.236 9.81333 212.927 8.38933 212.927 6.48C212.927 5.53067 212.991 4.72 213.119 4.048C213.247 3.376 213.471 2.77867 213.791 2.256C214.399 1.232 215.524 0.719999 217.167 0.719999C218.17 0.719999 219.188 0.821333 220.223 1.024L220.751 1.136L220.703 1.984C219.37 1.73867 218.218 1.616 217.247 1.616C215.956 1.616 215.082 2.00533 214.623 2.784C214.175 3.552 213.951 4.77867 213.951 6.464C213.951 8.14933 214.175 9.37067 214.623 10.128C215.082 10.8853 215.951 11.264 217.231 11.264C217.988 11.264 218.836 11.1787 219.775 11.008V7.264H217.727ZM229.026 6.384V10.672C229.069 11.0667 229.415 11.3013 230.066 11.376L230.018 12.144C229.197 12.144 228.594 11.9307 228.21 11.504C227.207 11.9413 226.205 12.16 225.202 12.16C224.487 12.16 223.943 11.9573 223.57 11.552C223.197 11.136 223.01 10.5493 223.01 9.792C223.01 9.024 223.197 8.45867 223.57 8.096C223.954 7.72267 224.551 7.49333 225.362 7.408L228.082 7.136V6.384C228.082 5.78667 227.949 5.36 227.682 5.104C227.426 4.83733 227.079 4.704 226.642 4.704C225.959 4.704 225.074 4.768 223.986 4.896L223.49 4.944L223.442 4.176C224.615 3.952 225.639 3.84 226.514 3.84C227.399 3.84 228.039 4.048 228.434 4.464C228.829 4.88 229.026 5.52 229.026 6.384ZM224.002 9.728C224.002 10.8053 224.445 11.344 225.33 11.344C225.714 11.344 226.135 11.3013 226.594 11.216C227.053 11.12 227.415 11.024 227.682 10.928L228.082 10.784V7.888L225.474 8.16C224.951 8.20267 224.573 8.352 224.338 8.608C224.114 8.864 224.002 9.23733 224.002 9.728ZM232.93 12H231.986V4H232.93V4.592C233.741 4.09067 234.605 3.84 235.522 3.84C236.44 3.84 237.09 4.12267 237.474 4.688C237.858 4.45333 238.322 4.256 238.866 4.096C239.421 3.92533 239.917 3.84 240.354 3.84C241.421 3.84 242.13 4.12267 242.482 4.688C242.845 5.24267 243.026 6.27733 243.026 7.792V12H242.082V7.84C242.082 6.61333 241.965 5.78667 241.73 5.36C241.506 4.92267 241.01 4.704 240.242 4.704C239.858 4.704 239.464 4.76267 239.058 4.88C238.653 4.98667 238.344 5.09867 238.13 5.216L237.81 5.376C237.97 5.78133 238.05 6.60267 238.05 7.84V12H237.09V7.872C237.09 6.624 236.973 5.78667 236.738 5.36C236.514 4.92267 236.024 4.704 235.266 4.704C234.893 4.704 234.509 4.76267 234.114 4.88C233.73 4.98667 233.437 5.09867 233.234 5.216L232.93 5.376V12ZM251.122 11.2L251.602 11.152L251.634 11.936C250.428 12.0853 249.41 12.16 248.578 12.16C247.426 12.1493 246.62 11.808 246.162 11.136C245.703 10.464 245.474 9.42933 245.474 8.032C245.474 5.23733 246.572 3.84 248.77 3.84C249.826 3.84 250.615 4.144 251.138 4.752C251.66 5.34933 251.922 6.30933 251.922 7.632L251.89 8.4H246.45C246.45 9.38133 246.615 10.112 246.946 10.592C247.287 11.0613 247.863 11.296 248.674 11.296C249.495 11.296 250.311 11.264 251.122 11.2ZM246.45 7.6H250.962C250.962 6.544 250.786 5.792 250.434 5.344C250.092 4.896 249.538 4.672 248.77 4.672C248.012 4.672 247.436 4.90667 247.042 5.376C246.647 5.83467 246.45 6.576 246.45 7.6ZM258.3 8.016V7.12H263.164V8.016H258.3ZM1.2 43.6V32H2.144V32.608C2.976 32.096 3.85067 31.84 4.768 31.84C5.696 31.84 6.384 32.1653 6.832 32.816C7.29067 33.4667 7.52 34.528 7.52 36C7.52 37.4613 7.25333 38.5227 6.72 39.184C6.18667 39.8347 5.30133 40.16 4.064 40.16C3.40267 40.16 2.76267 40.0907 2.144 39.952V43.6H1.2ZM4.576 32.704C4.224 32.704 3.84533 32.7627 3.44 32.88C3.03467 32.9973 2.72 33.12 2.496 33.248L2.144 33.424V39.12C2.86933 39.248 3.49867 39.312 4.032 39.312C4.94933 39.312 5.59467 39.056 5.968 38.544C6.34133 38.0213 6.528 37.168 6.528 35.984C6.528 34.7893 6.36267 33.9467 6.032 33.456C5.712 32.9547 5.22667 32.704 4.576 32.704ZM10.151 40V28.448H11.095V40H10.151ZM19.5703 34.384V38.672C19.6129 39.0667 19.9596 39.3013 20.6103 39.376L20.5623 40.144C19.7409 40.144 19.1383 39.9307 18.7543 39.504C17.7516 39.9413 16.7489 40.16 15.7463 40.16C15.0316 40.16 14.4876 39.9573 14.1143 39.552C13.7409 39.136 13.5543 38.5493 13.5543 37.792C13.5543 37.024 13.7409 36.4587 14.1143 36.096C14.4983 35.7227 15.0956 35.4933 15.9063 35.408L18.6263 35.136V34.384C18.6263 33.7867 18.4929 33.36 18.2263 33.104C17.9703 32.8373 17.6236 32.704 17.1863 32.704C16.5036 32.704 15.6183 32.768 14.5303 32.896L14.0343 32.944L13.9863 32.176C15.1596 31.952 16.1836 31.84 17.0583 31.84C17.9436 31.84 18.5836 32.048 18.9783 32.464C19.3729 32.88 19.5703 33.52 19.5703 34.384ZM14.5463 37.728C14.5463 38.8053 14.9889 39.344 15.8743 39.344C16.2583 39.344 16.6796 39.3013 17.1383 39.216C17.5969 39.12 17.9596 39.024 18.2263 38.928L18.6263 38.784V35.888L16.0183 36.16C15.4956 36.2027 15.1169 36.352 14.8823 36.608C14.6583 36.864 14.5463 37.2373 14.5463 37.728ZM21.6845 32H22.6605L24.7885 39.168H25.3645L27.5085 32H28.4845L25.0285 43.6H24.0685L25.1405 40H24.0365L21.6845 32ZM33.8008 32H34.7768L36.9048 39.168H37.4808L39.6248 32H40.6008L37.1448 43.6H36.1848L37.2568 40H36.1528L33.8008 32ZM42.1971 35.984C42.1971 34.48 42.4478 33.4133 42.9491 32.784C43.4611 32.1547 44.3251 31.84 45.5411 31.84C46.7678 31.84 47.6318 32.1547 48.1331 32.784C48.6451 33.4133 48.9011 34.48 48.9011 35.984C48.9011 37.488 48.6665 38.56 48.1971 39.2C47.7385 39.84 46.8585 40.16 45.5571 40.16C44.2558 40.16 43.3705 39.84 42.9011 39.2C42.4318 38.56 42.1971 37.488 42.1971 35.984ZM43.1891 35.968C43.1891 37.2267 43.3331 38.1013 43.6211 38.592C43.9198 39.072 44.5598 39.312 45.5411 39.312C46.5331 39.312 47.1785 39.0667 47.4771 38.576C47.7758 38.0853 47.9251 37.216 47.9251 35.968C47.9251 34.7093 47.7545 33.8507 47.4131 33.392C47.0825 32.9227 46.4638 32.688 45.5571 32.688C44.6505 32.688 44.0265 32.9173 43.6851 33.376C43.3545 33.8347 43.1891 34.6987 43.1891 35.968ZM56.5066 32H57.4506V40H56.5066V39.408C55.6853 39.9093 54.864 40.16 54.0426 40.16C52.9546 40.16 52.2346 39.8827 51.8826 39.328C51.5413 38.7733 51.3706 37.7227 51.3706 36.176V32H52.3146V36.16C52.3146 37.3973 52.4266 38.2293 52.6506 38.656C52.8853 39.0827 53.3866 39.296 54.1546 39.296C54.528 39.296 54.912 39.2427 55.3066 39.136C55.7013 39.0187 56 38.9013 56.2026 38.784L56.5066 38.624V32ZM60.3369 40V32H61.2809V33.152C61.6755 32.8747 62.1555 32.608 62.7209 32.352C63.2969 32.096 63.8249 31.9253 64.3049 31.84V32.8C63.8462 32.896 63.3662 33.0453 62.8649 33.248C62.3635 33.44 61.9742 33.6107 61.6969 33.76L61.2809 34V40H60.3369ZM71.5144 32.848V40H70.5544V32.848H69.5144V32H70.5544V31.184C70.5544 30.0533 70.709 29.2907 71.0184 28.896C71.3277 28.4907 71.877 28.288 72.6664 28.288L74.2184 28.368V29.184C73.589 29.1627 73.1197 29.152 72.8104 29.152C72.309 29.152 71.9677 29.2907 71.7864 29.568C71.605 29.8453 71.5144 30.3893 71.5144 31.2V32H73.9304V32.848H71.5144ZM81.4059 34.384V38.672C81.4485 39.0667 81.7952 39.3013 82.4459 39.376L82.3979 40.144C81.5765 40.144 80.9739 39.9307 80.5899 39.504C79.5872 39.9413 78.5845 40.16 77.5819 40.16C76.8672 40.16 76.3232 39.9573 75.9499 39.552C75.5765 39.136 75.3899 38.5493 75.3899 37.792C75.3899 37.024 75.5765 36.4587 75.9499 36.096C76.3339 35.7227 76.9312 35.4933 77.7419 35.408L80.4619 35.136V34.384C80.4619 33.7867 80.3285 33.36 80.0619 33.104C79.8059 32.8373 79.4592 32.704 79.0219 32.704C78.3392 32.704 77.4539 32.768 76.3659 32.896L75.8699 32.944L75.8219 32.176C76.9952 31.952 78.0192 31.84 78.8939 31.84C79.7792 31.84 80.4192 32.048 80.8139 32.464C81.2085 32.88 81.4059 33.52 81.4059 34.384ZM76.3819 37.728C76.3819 38.8053 76.8245 39.344 77.7099 39.344C78.0939 39.344 78.5152 39.3013 78.9739 39.216C79.4325 39.12 79.7952 39.024 80.0619 38.928L80.4619 38.784V35.888L77.8539 36.16C77.3312 36.2027 76.9525 36.352 76.7179 36.608C76.4939 36.864 76.3819 37.2373 76.3819 37.728ZM83.5201 32H84.5761L86.5761 39.168H87.2161L89.2961 32H90.2881L87.9521 40H85.8561L83.5201 32ZM91.9165 35.984C91.9165 34.48 92.1672 33.4133 92.6685 32.784C93.1805 32.1547 94.0445 31.84 95.2605 31.84C96.4872 31.84 97.3512 32.1547 97.8525 32.784C98.3645 33.4133 98.6205 34.48 98.6205 35.984C98.6205 37.488 98.3858 38.56 97.9165 39.2C97.4578 39.84 96.5778 40.16 95.2765 40.16C93.9752 40.16 93.0898 39.84 92.6205 39.2C92.1512 38.56 91.9165 37.488 91.9165 35.984ZM92.9085 35.968C92.9085 37.2267 93.0525 38.1013 93.3405 38.592C93.6392 39.072 94.2792 39.312 95.2605 39.312C96.2525 39.312 96.8978 39.0667 97.1965 38.576C97.4952 38.0853 97.6445 37.216 97.6445 35.968C97.6445 34.7093 97.4738 33.8507 97.1325 33.392C96.8018 32.9227 96.1832 32.688 95.2765 32.688C94.3698 32.688 93.7458 32.9173 93.4045 33.376C93.0738 33.8347 92.9085 34.6987 92.9085 35.968ZM101.17 40V32H102.114V33.152C102.509 32.8747 102.989 32.608 103.554 32.352C104.13 32.096 104.658 31.9253 105.138 31.84V32.8C104.679 32.896 104.199 33.0453 103.698 33.248C103.197 33.44 102.807 33.6107 102.53 33.76L102.114 34V40H101.17ZM107.072 40V32H108.016V40H107.072ZM107.072 30V28.8H108.016V30H107.072ZM114.944 32.848H112.272V36.8C112.272 37.8347 112.346 38.512 112.496 38.832C112.645 39.152 112.997 39.312 113.552 39.312L115.024 39.2L115.088 40.016C114.384 40.1227 113.845 40.176 113.472 40.176C112.661 40.176 112.096 39.9787 111.776 39.584C111.466 39.1787 111.312 38.4107 111.312 37.28V32.848H110.128V32H111.312V29.488H112.272V32H114.944V32.848ZM122.218 39.2L122.698 39.152L122.73 39.936C121.525 40.0853 120.506 40.16 119.674 40.16C118.522 40.1493 117.717 39.808 117.258 39.136C116.8 38.464 116.57 37.4293 116.57 36.032C116.57 33.2373 117.669 31.84 119.866 31.84C120.922 31.84 121.712 32.144 122.234 32.752C122.757 33.3493 123.018 34.3093 123.018 35.632L122.986 36.4H117.546C117.546 37.3813 117.712 38.112 118.042 38.592C118.384 39.0613 118.96 39.296 119.77 39.296C120.592 39.296 121.408 39.264 122.218 39.2ZM117.546 35.6H122.058C122.058 34.544 121.882 33.792 121.53 33.344C121.189 32.896 120.634 32.672 119.866 32.672C119.109 32.672 118.533 32.9067 118.138 33.376C117.744 33.8347 117.546 34.576 117.546 35.6ZM135.941 41.216C135.941 42.1227 135.647 42.7787 135.061 43.184C134.485 43.5893 133.583 43.792 132.357 43.792C131.13 43.792 130.282 43.616 129.813 43.264C129.343 42.912 129.109 42.2667 129.109 41.328C129.109 40.88 129.205 40.5173 129.397 40.24C129.589 39.9733 129.925 39.664 130.405 39.312C130.138 39.1413 130.005 38.7787 130.005 38.224C130.005 38.0533 130.133 37.7173 130.389 37.216L130.517 36.976C129.642 36.6133 129.205 35.808 129.205 34.56C129.205 32.7467 130.17 31.84 132.101 31.84C132.645 31.84 133.125 31.8933 133.541 32L133.781 32.048L136.101 32V32.848L134.501 32.816C134.885 33.2 135.077 33.8347 135.077 34.72C135.077 35.5947 134.831 36.2347 134.341 36.64C133.861 37.0347 133.098 37.232 132.053 37.232C131.743 37.232 131.471 37.2107 131.237 37.168C131.023 37.6907 130.917 38.0213 130.917 38.16C130.917 38.512 131.018 38.7307 131.221 38.816C131.434 38.8907 132.058 38.9333 133.093 38.944C134.127 38.944 134.858 39.0987 135.285 39.408C135.722 39.7067 135.941 40.3093 135.941 41.216ZM130.069 41.264C130.069 41.904 130.229 42.3467 130.549 42.592C130.869 42.8373 131.487 42.96 132.405 42.96C133.322 42.96 133.978 42.8267 134.373 42.56C134.767 42.304 134.965 41.8667 134.965 41.248C134.965 40.64 134.821 40.2453 134.533 40.064C134.245 39.8827 133.695 39.792 132.885 39.792L131.077 39.728C130.682 40.0053 130.415 40.2453 130.277 40.448C130.138 40.6613 130.069 40.9333 130.069 41.264ZM130.181 34.56C130.181 35.2427 130.33 35.728 130.629 36.016C130.927 36.2933 131.429 36.432 132.133 36.432C132.847 36.432 133.354 36.2933 133.653 36.016C133.951 35.7387 134.101 35.2533 134.101 34.56C134.101 33.856 133.951 33.36 133.653 33.072C133.354 32.784 132.847 32.64 132.133 32.64C131.429 32.64 130.927 32.7893 130.629 33.088C130.33 33.376 130.181 33.8667 130.181 34.56ZM143.585 34.384V38.672C143.628 39.0667 143.975 39.3013 144.625 39.376L144.577 40.144C143.756 40.144 143.153 39.9307 142.769 39.504C141.767 39.9413 140.764 40.16 139.761 40.16C139.047 40.16 138.503 39.9573 138.129 39.552C137.756 39.136 137.569 38.5493 137.569 37.792C137.569 37.024 137.756 36.4587 138.129 36.096C138.513 35.7227 139.111 35.4933 139.921 35.408L142.641 35.136V34.384C142.641 33.7867 142.508 33.36 142.241 33.104C141.985 32.8373 141.639 32.704 141.201 32.704C140.519 32.704 139.633 32.768 138.545 32.896L138.049 32.944L138.001 32.176C139.175 31.952 140.199 31.84 141.073 31.84C141.959 31.84 142.599 32.048 142.993 32.464C143.388 32.88 143.585 33.52 143.585 34.384ZM138.561 37.728C138.561 38.8053 139.004 39.344 139.889 39.344C140.273 39.344 140.695 39.3013 141.153 39.216C141.612 39.12 141.975 39.024 142.241 38.928L142.641 38.784V35.888L140.033 36.16C139.511 36.2027 139.132 36.352 138.897 36.608C138.673 36.864 138.561 37.2373 138.561 37.728ZM147.49 40H146.546V32H147.49V32.592C148.3 32.0907 149.164 31.84 150.082 31.84C150.999 31.84 151.65 32.1227 152.034 32.688C152.418 32.4533 152.882 32.256 153.426 32.096C153.98 31.9253 154.476 31.84 154.914 31.84C155.98 31.84 156.69 32.1227 157.042 32.688C157.404 33.2427 157.586 34.2773 157.586 35.792V40H156.642V35.84C156.642 34.6133 156.524 33.7867 156.29 33.36C156.066 32.9227 155.57 32.704 154.802 32.704C154.418 32.704 154.023 32.7627 153.618 32.88C153.212 32.9867 152.903 33.0987 152.69 33.216L152.37 33.376C152.53 33.7813 152.61 34.6027 152.61 35.84V40H151.65V35.872C151.65 34.624 151.532 33.7867 151.298 33.36C151.074 32.9227 150.583 32.704 149.826 32.704C149.452 32.704 149.068 32.7627 148.674 32.88C148.29 32.9867 147.996 33.0987 147.794 33.216L147.49 33.376V40ZM165.681 39.2L166.161 39.152L166.193 39.936C164.988 40.0853 163.969 40.16 163.137 40.16C161.985 40.1493 161.18 39.808 160.721 39.136C160.262 38.464 160.033 37.4293 160.033 36.032C160.033 33.2373 161.132 31.84 163.329 31.84C164.385 31.84 165.174 32.144 165.697 32.752C166.22 33.3493 166.481 34.3093 166.481 35.632L166.449 36.4H161.009C161.009 37.3813 161.174 38.112 161.505 38.592C161.846 39.0613 162.422 39.296 163.233 39.296C164.054 39.296 164.87 39.264 165.681 39.2ZM161.009 35.6H165.521C165.521 34.544 165.345 33.792 164.993 33.344C164.652 32.896 164.097 32.672 163.329 32.672C162.572 32.672 161.996 32.9067 161.601 33.376C161.206 33.8347 161.009 34.576 161.009 35.6ZM171.343 32.72C170.085 32.72 169.455 33.1733 169.455 34.08C169.455 34.496 169.594 34.7893 169.871 34.96C170.149 35.1307 170.773 35.3013 171.743 35.472C172.725 35.632 173.413 35.856 173.807 36.144C174.213 36.432 174.415 36.9867 174.415 37.808C174.415 38.6187 174.154 39.216 173.631 39.6C173.109 39.9733 172.341 40.16 171.327 40.16C170.741 40.16 169.983 40.0853 169.055 39.936L168.591 39.872L168.655 39.024C169.85 39.2053 170.767 39.296 171.407 39.296C172.047 39.296 172.543 39.184 172.895 38.96C173.258 38.736 173.439 38.3573 173.439 37.824C173.439 37.2907 173.29 36.9387 172.991 36.768C172.703 36.5867 172.074 36.4213 171.103 36.272C170.143 36.1227 169.466 35.9093 169.071 35.632C168.677 35.3547 168.479 34.832 168.479 34.064C168.479 33.296 168.751 32.736 169.295 32.384C169.839 32.032 170.511 31.856 171.311 31.856C171.951 31.856 172.751 31.9253 173.711 32.064L174.143 32.128L174.111 32.976C172.97 32.8053 172.047 32.72 171.343 32.72ZM184.873 32.848H182.201V36.8C182.201 37.8347 182.276 38.512 182.425 38.832C182.574 39.152 182.926 39.312 183.481 39.312L184.953 39.2L185.017 40.016C184.313 40.1227 183.774 40.176 183.401 40.176C182.59 40.176 182.025 39.9787 181.705 39.584C181.396 39.1787 181.241 38.4107 181.241 37.28V32.848H180.057V32H181.241V29.488H182.201V32H184.873V32.848ZM186.516 35.984C186.516 34.48 186.767 33.4133 187.268 32.784C187.78 32.1547 188.644 31.84 189.86 31.84C191.087 31.84 191.951 32.1547 192.452 32.784C192.964 33.4133 193.22 34.48 193.22 35.984C193.22 37.488 192.985 38.56 192.516 39.2C192.057 39.84 191.177 40.16 189.876 40.16C188.575 40.16 187.689 39.84 187.22 39.2C186.751 38.56 186.516 37.488 186.516 35.984ZM187.508 35.968C187.508 37.2267 187.652 38.1013 187.94 38.592C188.239 39.072 188.879 39.312 189.86 39.312C190.852 39.312 191.497 39.0667 191.796 38.576C192.095 38.0853 192.244 37.216 192.244 35.968C192.244 34.7093 192.073 33.8507 191.732 33.392C191.401 32.9227 190.783 32.688 189.876 32.688C188.969 32.688 188.345 32.9173 188.004 33.376C187.673 33.8347 187.508 34.6987 187.508 35.968ZM199.093 32H200.069L201.829 39.168H202.053L204.133 32.16H205.141L207.221 39.168H207.461L209.221 32H210.197L208.197 40H206.533L204.645 33.408L202.741 40H201.093L199.093 32ZM212.401 40V32H213.345V40H212.401ZM212.401 30V28.8H213.345V30H212.401ZM217.169 40H216.225V32H217.169V32.592C218.065 32.0907 218.934 31.84 219.777 31.84C220.844 31.84 221.553 32.1227 221.905 32.688C222.268 33.2533 222.449 34.288 222.449 35.792V40H221.489V35.84C221.489 34.6133 221.372 33.7867 221.137 33.36C220.902 32.9227 220.401 32.704 219.633 32.704C219.26 32.704 218.865 32.7627 218.449 32.88C218.044 32.9867 217.729 33.0987 217.505 33.216L217.169 33.376V40ZM228.464 32H229.44L231.568 39.168H232.144L234.288 32H235.264L231.808 43.6H230.848L231.92 40H230.816L228.464 32ZM236.86 35.984C236.86 34.48 237.111 33.4133 237.612 32.784C238.124 32.1547 238.988 31.84 240.204 31.84C241.431 31.84 242.295 32.1547 242.796 32.784C243.308 33.4133 243.564 34.48 243.564 35.984C243.564 37.488 243.33 38.56 242.86 39.2C242.402 39.84 241.522 40.16 240.22 40.16C238.919 40.16 238.034 39.84 237.564 39.2C237.095 38.56 236.86 37.488 236.86 35.984ZM237.852 35.968C237.852 37.2267 237.996 38.1013 238.284 38.592C238.583 39.072 239.223 39.312 240.204 39.312C241.196 39.312 241.842 39.0667 242.14 38.576C242.439 38.0853 242.588 37.216 242.588 35.968C242.588 34.7093 242.418 33.8507 242.076 33.392C241.746 32.9227 241.127 32.688 240.22 32.688C239.314 32.688 238.69 32.9173 238.348 33.376C238.018 33.8347 237.852 34.6987 237.852 35.968ZM251.17 32H252.114V40H251.17V39.408C250.348 39.9093 249.527 40.16 248.706 40.16C247.618 40.16 246.898 39.8827 246.546 39.328C246.204 38.7733 246.034 37.7227 246.034 36.176V32H246.978V36.16C246.978 37.3973 247.09 38.2293 247.314 38.656C247.548 39.0827 248.05 39.296 248.818 39.296C249.191 39.296 249.575 39.2427 249.97 39.136C250.364 39.0187 250.663 38.9013 250.866 38.784L251.17 38.624V32ZM255 40V32H255.944V33.152C256.339 32.8747 256.819 32.608 257.384 32.352C257.96 32.096 258.488 31.9253 258.968 31.84V32.8C258.509 32.896 258.029 33.0453 257.528 33.248C257.027 33.44 256.637 33.6107 256.36 33.76L255.944 34V40H255ZM2.48 60.848V68H1.52V60.848H0.48V60H1.52V59.184C1.52 58.0533 1.67467 57.2907 1.984 56.896C2.29333 56.4907 2.84267 56.288 3.632 56.288L5.184 56.368V57.184C4.55467 57.1627 4.08533 57.152 3.776 57.152C3.27467 57.152 2.93333 57.2907 2.752 57.568C2.57067 57.8453 2.48 58.3893 2.48 59.2V60H4.896V60.848H2.48ZM12.3715 62.384V66.672C12.4142 67.0667 12.7608 67.3013 13.4115 67.376L13.3635 68.144C12.5422 68.144 11.9395 67.9307 11.5555 67.504C10.5528 67.9413 9.55017 68.16 8.5475 68.16C7.83283 68.16 7.28883 67.9573 6.9155 67.552C6.54217 67.136 6.3555 66.5493 6.3555 65.792C6.3555 65.024 6.54217 64.4587 6.9155 64.096C7.2995 63.7227 7.89683 63.4933 8.7075 63.408L11.4275 63.136V62.384C11.4275 61.7867 11.2942 61.36 11.0275 61.104C10.7715 60.8373 10.4248 60.704 9.9875 60.704C9.30483 60.704 8.4195 60.768 7.3315 60.896L6.8355 60.944L6.7875 60.176C7.96083 59.952 8.98483 59.84 9.8595 59.84C10.7448 59.84 11.3848 60.048 11.7795 60.464C12.1742 60.88 12.3715 61.52 12.3715 62.384ZM7.3475 65.728C7.3475 66.8053 7.79017 67.344 8.6755 67.344C9.0595 67.344 9.48083 67.3013 9.9395 67.216C10.3982 67.12 10.7608 67.024 11.0275 66.928L11.4275 66.784V63.888L8.8195 64.16C8.29683 64.2027 7.91817 64.352 7.6835 64.608C7.4595 64.864 7.3475 65.2373 7.3475 65.728ZM14.4858 60H15.5418L17.5418 67.168H18.1818L20.2618 60H21.2538L18.9178 68H16.8218L14.4858 60ZM22.8821 63.984C22.8821 62.48 23.1328 61.4133 23.6341 60.784C24.1461 60.1547 25.0101 59.84 26.2261 59.84C27.4528 59.84 28.3168 60.1547 28.8181 60.784C29.3301 61.4133 29.5861 62.48 29.5861 63.984C29.5861 65.488 29.3515 66.56 28.8821 67.2C28.4235 67.84 27.5435 68.16 26.2421 68.16C24.9408 68.16 24.0555 67.84 23.5861 67.2C23.1168 66.56 22.8821 65.488 22.8821 63.984ZM23.8741 63.968C23.8741 65.2267 24.0181 66.1013 24.3061 66.592C24.6048 67.072 25.2448 67.312 26.2261 67.312C27.2181 67.312 27.8635 67.0667 28.1621 66.576C28.4608 66.0853 28.6101 65.216 28.6101 63.968C28.6101 62.7093 28.4395 61.8507 28.0981 61.392C27.7675 60.9227 27.1488 60.688 26.2421 60.688C25.3355 60.688 24.7115 60.9173 24.3701 61.376C24.0395 61.8347 23.8741 62.6987 23.8741 63.968ZM32.1356 68V60H33.0796V61.152C33.4743 60.8747 33.9543 60.608 34.5196 60.352C35.0956 60.096 35.6236 59.9253 36.1036 59.84V60.8C35.645 60.896 35.165 61.0453 34.6636 61.248C34.1623 61.44 33.773 61.6107 33.4956 61.76L33.0796 62V68H32.1356ZM38.0375 68V60H38.9815V68H38.0375ZM38.0375 58V56.8H38.9815V58H38.0375ZM45.9093 60.848H43.2373V64.8C43.2373 65.8347 43.3119 66.512 43.4613 66.832C43.6106 67.152 43.9626 67.312 44.5173 67.312L45.9893 67.2L46.0533 68.016C45.3493 68.1227 44.8106 68.176 44.4373 68.176C43.6266 68.176 43.0613 67.9787 42.7413 67.584C42.4319 67.1787 42.2773 66.4107 42.2773 65.28V60.848H41.0933V60H42.2773V57.488H43.2373V60H45.9093V60.848ZM53.1841 67.2L53.6641 67.152L53.6961 67.936C52.4908 68.0853 51.4721 68.16 50.6401 68.16C49.4881 68.1493 48.6828 67.808 48.2241 67.136C47.7655 66.464 47.5361 65.4293 47.5361 64.032C47.5361 61.2373 48.6348 59.84 50.8321 59.84C51.8881 59.84 52.6775 60.144 53.2001 60.752C53.7228 61.3493 53.9841 62.3093 53.9841 63.632L53.9521 64.4H48.5121C48.5121 65.3813 48.6775 66.112 49.0081 66.592C49.3495 67.0613 49.9255 67.296 50.7361 67.296C51.5575 67.296 52.3735 67.264 53.1841 67.2ZM48.5121 63.6H53.0241C53.0241 62.544 52.8481 61.792 52.4961 61.344C52.1548 60.896 51.6001 60.672 50.8321 60.672C50.0748 60.672 49.4988 60.9067 49.1041 61.376C48.7095 61.8347 48.5121 62.576 48.5121 63.6ZM60.4262 71.6V60H61.3702V60.608C62.2022 60.096 63.0769 59.84 63.9942 59.84C64.9222 59.84 65.6102 60.1653 66.0582 60.816C66.5169 61.4667 66.7463 62.528 66.7463 64C66.7463 65.4613 66.4796 66.5227 65.9462 67.184C65.4129 67.8347 64.5276 68.16 63.2902 68.16C62.6289 68.16 61.9889 68.0907 61.3702 67.952V71.6H60.4262ZM63.8022 60.704C63.4502 60.704 63.0716 60.7627 62.6662 60.88C62.2609 60.9973 61.9462 61.12 61.7222 61.248L61.3702 61.424V67.12C62.0956 67.248 62.7249 67.312 63.2582 67.312C64.1756 67.312 64.8209 67.056 65.1943 66.544C65.5676 66.0213 65.7543 65.168 65.7543 63.984C65.7543 62.7893 65.5889 61.9467 65.2582 61.456C64.9382 60.9547 64.4529 60.704 63.8022 60.704ZM69.2813 68V60H70.2253V61.152C70.6199 60.8747 71.0999 60.608 71.6653 60.352C72.2413 60.096 72.7693 59.9253 73.2493 59.84V60.8C72.7906 60.896 72.3106 61.0453 71.8093 61.248C71.3079 61.44 70.9186 61.6107 70.6413 61.76L70.2253 62V68H69.2813ZM75.1831 68V60H76.1271V68H75.1831ZM75.1831 58V56.8H76.1271V58H75.1831ZM78.4789 60.864V60H84.4149V60.864L79.6629 67.136H84.4149V68H78.4789V67.136L83.2309 60.864H78.4789ZM92.0016 67.2L92.4816 67.152L92.5136 67.936C91.3083 68.0853 90.2896 68.16 89.4576 68.16C88.3056 68.1493 87.5003 67.808 87.0416 67.136C86.583 66.464 86.3536 65.4293 86.3536 64.032C86.3536 61.2373 87.4523 59.84 89.6496 59.84C90.7056 59.84 91.495 60.144 92.0176 60.752C92.5403 61.3493 92.8016 62.3093 92.8016 63.632L92.7696 64.4H87.3296C87.3296 65.3813 87.495 66.112 87.8256 66.592C88.167 67.0613 88.743 67.296 89.5536 67.296C90.375 67.296 91.191 67.264 92.0016 67.2ZM87.3296 63.6H91.8416C91.8416 62.544 91.6656 61.792 91.3136 61.344C90.9723 60.896 90.4176 60.672 89.6496 60.672C88.8923 60.672 88.3163 60.9067 87.9216 61.376C87.527 61.8347 87.3296 62.576 87.3296 63.6ZM97.6641 60.72C96.4055 60.72 95.7761 61.1733 95.7761 62.08C95.7761 62.496 95.9148 62.7893 96.1921 62.96C96.4695 63.1307 97.0935 63.3013 98.0641 63.472C99.0455 63.632 99.7335 63.856 100.128 64.144C100.533 64.432 100.736 64.9867 100.736 65.808C100.736 66.6187 100.475 67.216 99.9521 67.6C99.4295 67.9733 98.6615 68.16 97.6481 68.16C97.0615 68.16 96.3041 68.0853 95.3761 67.936L94.9121 67.872L94.9761 67.024C96.1708 67.2053 97.0881 67.296 97.7281 67.296C98.3681 67.296 98.8641 67.184 99.2161 66.96C99.5788 66.736 99.7601 66.3573 99.7601 65.824C99.7601 65.2907 99.6108 64.9387 99.3121 64.768C99.0241 64.5867 98.3948 64.4213 97.4241 64.272C96.4641 64.1227 95.7868 63.9093 95.3921 63.632C94.9975 63.3547 94.8001 62.832 94.8001 62.064C94.8001 61.296 95.0721 60.736 95.6161 60.384C96.1601 60.032 96.8321 59.856 97.6321 59.856C98.2721 59.856 99.0721 59.9253 100.032 60.064L100.464 60.128L100.432 60.976C99.2908 60.8053 98.3681 60.72 97.6641 60.72Z"
          fill="#DEDEDE"/>
</svg>