<svg width="1004" height="46" viewBox="0 0 1004 46" fill="none" xmlns="http://www.w3.org/2000/svg">
    <path d="M0.320709 45H13.9607V1.59995H0.320709V45Z" fill="#F22FB0"/>
    <path d="M88.2023 15.488C88.2023 7.79996 82.0023 1.59995 74.3143 1.59995H37.9203V45H74.3143C82.0023 45 88.2023 38.862 88.2023 31.174C88.2023 28.136 87.0863 25.408 85.1643 23.238C87.0863 21.192 88.2023 18.526 88.2023 15.488ZM51.2503 13.566H72.1443C73.3223 13.566 74.3143 14.558 74.3143 15.798C74.3143 17.038 73.2603 18.03 72.1443 18.03H51.2503V13.566ZM71.9583 33.034H51.2503V28.198H71.8963C73.3223 28.198 74.3143 29.5 74.3143 30.616C74.3143 31.98 73.2603 33.034 71.9583 33.034Z"
          fill="#F22FB0"/>
    <path d="M136.725 13.38V1.59995H93.1391V45H136.725V33.158H106.779V29.004H132.509V17.72H106.779V13.38H136.725Z"
          fill="#F22FB0"/>
    <path d="M193.687 1.59995H142.909V13.566H161.509V45H175.149V13.566H193.687V1.59995Z" fill="#F22FB0"/>
    <path d="M255.009 1.59995L243.415 15.86L231.821 1.59995H215.143L236.595 28.074V45H250.235V28.198L271.687 1.59995H255.009Z"
          fill="#F22FB0"/>
    <path d="M300.753 0.855957H292.383C278.495 0.855957 268.575 9.90796 268.575 23.3C268.575 36.754 278.805 45.744 292.383 45.744H300.753C314.641 45.744 324.561 36.754 324.561 23.3C324.561 9.90796 314.641 0.855957 300.753 0.855957ZM300.753 33.034H292.383C286.493 33.034 282.463 28.942 282.463 23.3C282.463 17.72 286.493 13.566 292.383 13.566H300.753C306.643 13.566 310.673 17.72 310.673 23.3C310.673 28.942 306.643 33.034 300.753 33.034Z"
          fill="#F22FB0"/>
    <path d="M350.904 45.744H359.274C372.542 45.744 380.664 38.676 380.664 25.222V1.59995H367.024V24.106C367.024 28.694 365.04 32.724 359.274 32.724H350.904C345.2 32.724 343.154 28.694 343.154 24.106V1.59995H329.514V25.222C329.514 38.676 337.636 45.744 350.904 45.744Z"
          fill="#F22FB0"/>
    <path d="M448.178 13.38V1.59995H404.592V45H418.232V31.112H443.962V19.332H418.232V13.38H448.178Z" fill="#F22FB0"/>
    <path d="M475.752 45.744H484.122C497.39 45.744 505.512 38.676 505.512 25.222V1.59995H491.872V24.106C491.872 28.694 489.888 32.724 484.122 32.724H475.752C470.048 32.724 468.002 28.694 468.002 24.106V1.59995H454.362V25.222C454.362 38.676 462.484 45.744 475.752 45.744Z"
          fill="#F22FB0"/>
    <path d="M542.638 33.22H534.268C528.378 33.22 524.348 29.128 524.348 23.3C524.348 17.72 528.378 13.566 534.268 13.566H542.638C547.35 13.566 550.884 16.48 552.124 20.262H566.26C564.896 8.54396 555.472 0.855957 542.638 0.855957H534.268C520.38 0.855957 510.46 9.90796 510.46 23.3C510.46 36.754 520.69 45.744 534.268 45.744H542.638C555.472 45.744 564.896 38.056 566.26 26.338H552.124C550.884 30.182 547.35 33.22 542.638 33.22Z"
          fill="#F22FB0"/>
    <path d="M621.189 1.59995H606.433L599.241 16.976H584.919V1.59995H571.217V45H584.919V28.88H598.869L606.433 45H621.189L610.897 23.3L621.189 1.59995Z"
          fill="#F22FB0"/>
    <path d="M625.528 45H639.168V1.59995H625.528V45Z" fill="#F22FB0"/>
    <path d="M683.827 1.59995V25.532L658.779 1.59995H645.387V45H658.779V20.758L683.827 45H697.219V1.59995H683.827Z"
          fill="#F22FB0"/>
    <path d="M725.959 45.744H734.329C748.217 45.744 757.951 35.762 757.951 23.3V20.634L730.237 20.572V30.492H741.645C740.777 31.98 737.987 33.592 734.329 33.592H725.959C719.945 33.592 716.039 29.314 716.039 23.486C716.039 17.72 719.945 13.566 725.959 13.566H734.329C737.801 13.566 740.529 15.116 742.079 17.162H757.393C754.851 7.17996 745.985 0.855957 734.329 0.855957H725.959C712.071 0.855957 702.151 9.90796 702.151 23.3C702.151 36.754 712.381 45.744 725.959 45.744Z"
          fill="#F22FB0"/>
    <path d="M811.587 33.22H803.217C797.327 33.22 793.297 29.128 793.297 23.3C793.297 17.72 797.327 13.566 803.217 13.566H811.587C816.299 13.566 819.833 16.48 821.073 20.262H835.209C833.845 8.54396 824.421 0.855957 811.587 0.855957H803.217C789.329 0.855957 779.409 9.90796 779.409 23.3C779.409 36.754 789.639 45.744 803.217 45.744H811.587C824.421 45.744 833.845 38.056 835.209 26.338H821.073C819.833 30.182 816.299 33.22 811.587 33.22Z"
          fill="#F22FB0"/>
    <path d="M877.364 45H891.19L879.72 1.59995H846.674L835.204 45H848.968L850.766 38.118H875.566L877.364 45ZM853.866 26.028L857.09 13.566H869.18L872.404 26.028H853.866Z"
          fill="#F22FB0"/>
    <path d="M933.341 1.59995V25.532L908.293 1.59995H894.901V45H908.293V20.758L933.341 45H946.733V1.59995H933.341Z"
          fill="#F22FB0"/>
    <path d="M1003.68 1.59995H952.905V13.566H971.505V45H985.145V13.566H1003.68V1.59995Z" fill="#F22FB0"/>
</svg>
